<mxfile host="app.diagrams.net" modified="2022-02-23T10:29:16.460Z" agent="5.0 (Windows NT 10.0; Win64; x64) AppleWebKit/537.36 (KHTML, like Gecko) Chrome/98.0.4758.102 Safari/537.36" etag="x0pm-8l2Pw9uyOu7iSVw" version="16.6.2" type="github">
  <diagram id="vGlfd8bM4p0ch86xNs-z" name="Page-1">
    <mxGraphModel dx="1237" dy="663" grid="1" gridSize="10" guides="1" tooltips="1" connect="1" arrows="1" fold="1" page="1" pageScale="1" pageWidth="1169" pageHeight="827" math="0" shadow="0">
      <root>
        <mxCell id="0" />
        <mxCell id="1" parent="0" />
        <mxCell id="CWP3KJ67fJkBhS8T6Zk5-3" value="Onload" style="edgeStyle=orthogonalEdgeStyle;rounded=0;orthogonalLoop=1;jettySize=auto;html=1;exitX=0.5;exitY=1;exitDx=0;exitDy=0;" edge="1" parent="1" source="CWP3KJ67fJkBhS8T6Zk5-1">
          <mxGeometry relative="1" as="geometry">
            <mxPoint x="585" y="130" as="targetPoint" />
            <Array as="points">
              <mxPoint x="585" y="110" />
              <mxPoint x="585" y="110" />
            </Array>
          </mxGeometry>
        </mxCell>
        <mxCell id="CWP3KJ67fJkBhS8T6Zk5-1" value="- InitialState" style="rounded=1;whiteSpace=wrap;html=1;align=center;" vertex="1" parent="1">
          <mxGeometry x="547" y="40" width="75" height="40" as="geometry" />
        </mxCell>
        <mxCell id="CWP3KJ67fJkBhS8T6Zk5-6" value="&amp;nbsp; - ProtocolsLoadedState" style="rounded=0;whiteSpace=wrap;html=1;verticalAlign=top;align=left;" vertex="1" parent="1">
          <mxGeometry x="300" y="130" width="570" height="310" as="geometry" />
        </mxCell>
        <mxCell id="CWP3KJ67fJkBhS8T6Zk5-4" value="" style="shape=image;verticalLabelPosition=bottom;verticalAlign=top;imageAspect=0;aspect=fixed;image=data:image/png,iVBORw0KGgoAAAANSUhEUgAAA/YAAAIcCAYAAABcsDUEAAAAAXNSR0IArs4c6QAAAARnQU1BAACxjwv8YQUAAAAJcEhZcwAADsMAAA7DAcdvqGQAAOLNSURBVHhe7P1nkGXVma+J68t8vDExMRETMTful9aNbkVMj/6hUIcU6qvhtlpNS62mJSHfUksNF5AA4YT33lvhvffeeyiKwnsrXFFFAVUUFJTFFKaA/c9nVb7Jyl377H1Onsw8Jp8fPFF5tjvbrL3W+1vufGnJkiWFiIiIiIiIiAwmX1q1alUhIiIiIiIiIoPJl1avXl2IiIiIiIiIyGDypY8//rgQERERERERkcHkS5988kkhIiIiIiIiIoOJxl5ERERERERkgNHYi4iIiIiIiAwwGnsRERERERGRAUZjLyIiIiIiIjLAaOxFREREREREBhiNvYiIiIiIiMgAo7EXERERERERGWA09iIiIiIiIiIDjMZeREREREREZIDR2IuIiIiIiIgMMBp7ERERERERkQFGYy8iIiIiIiIywGjsRURERERERAYYjb2IiIiIiIjIAKOxFxERERERERlgNPYiIiIiIiIiA4zGXkRERERERGSAaWnsn3jiieKyyy4rzjjjDBEZAnifea+r3ncRERERERlcKo39nDlziltuuaV4880311knIoMJ7zPvNe931fo6Djp9TvHf/+2E4ktfO0CGFJ4vz7nq+YuIiMwkDppzSfHfT9i0+NIB/yrSU0iHpMeqdFpmHWO/aNGi1LJXXi4iwwHvN+951boqfn/A9ZVGUIYTnndVOhAREZkJ/P764yoNlkgvIV1WpdecdYw9XXUffPDBcctEZHjg/W63S/6cxxZUmj8ZbnjuVelBRERkmJmz4JlKUyXSD5A+q9JtsI6xf/TRRxPl5SIyHHTyjtM1u8r4yXDTky75r79erLnhhup1IiIi0wBdnqsMlUg/0NQlX2MvMsPo5B3f+6S7Ko2fDDc896r0MGWMmPrPv/Wt4tMzzqheLyIiMg3sfdf5lYZKpB8gfVal20BjLzLD6Edj/zc/Pqm48Z65xZtL3ys+/uTT4pM1n6W/Wca6qn1k6phWYz9q6osvfUljLyIy0/j44+KTjz4qPvnww1QGFP/H/5HKgzH+z/9zbdkwsj5tx/ZVx5kkNPbSz2jsRWQc/Wbsd/7zHcWSZe8XrfTW0veLHY++vXJfmRqmzdhnpl5jLyIys1jz+OPF5//3/z3eyDfw+X/9r2m/quNNBhp76WcGyti/9dZbxWabbTbGfvvtV1xwwQXFCy+8sM62V111VfrprvLyVqxevbo45phjimeffbZyvchMoZ+M/U92uLxY/dGaZOCXr/qwOOuaJ4uN97mu2Gjv64ozrn6iWLpydVr3wYefFD/c7tLKY8jkMy3GvmTqE//lvxSf//3fF59ts02xhvx9iltmRESkdyRj/9/+2/hyoAG2H1Zjf+u8kfsx8h//Vq0XGUhjz+9sz5s3r3jxxReL2267rdh+++2LWbNmjdv2kUceKZ55pn5mwJyPRwJEKgIWLlw4tuyGG24ozrCFSGYY/WTsn3/lnWTcX1m0ovjGf5y5zvqv//qM4uXXl6Vtnn15yTrrJ8I51z2Vjhda8+lnxRtvv1sced4DldvPRKbN2H/zm5WBW/DZRhul7Sr3FxGR4SG65Ldimip6e2nsb5v/eIpL+Ldq/UQ556k70nGPevCqddahUx+/eZ3l0prdZp2T7tuPLxuJmSrWTyUDaewx9Pny5557Li3H7OfLu0VjLzORfjH22xx2S8oYGU//2z2vqdwGfrnLlcVHH3+atv3DgTdWbtMJGPtPP/s8de+HvU+aXdzz+GvF558Xxe7Hz6rcZ6YxLcYeSub+01NOKdaM5P9rrrmm+Hy99dIyummueeyx6v1FRGSwWb26+GzHHVOPrSgLKhlZz3ZsX3mcSWKYjf3S1e8WXz5hk3Hr0DAY+0cXzy2ef+f1ynWTjca+TVoZe1rbTz/99OLKK68cW3buuecW14wEf/k2tPQfcsghxd57711cd9116fNRRx2V1n/44Yfp2Px+d7nLP+St/3z/qaeeWuy6667pe+fPnz+2ropVq1YVN954Y3HQQQel7+Y833777cpt4amnniq222674rXXXivOOuusYrfddksVDHzOt1u8eHFxySWXpGNyXbfffnvxwQcfjDsO5/jSSy8Vp4wExHG+r48Ey2+++WZx9tlnp2OfeOKJ6wxnePfdd9M5H3DAAQl6M+THluGlX4z9Zbc9lzLGeQuXV67PeXHB0rTtRTc/W7m+E8LYl5cveGNF8dRLb62z/L99/9h1lk0lnX7fVJzftBl7yMz9uDH2I3nUpyN5E8tZ/8nKleP3ExGRgWfN9dePN/ANsH3VcSaLYTX2dPH/+NM1xfUvPTRuHepnY//fjv3PyuVlNPZrGQhjD3fccUcyoPG5bOwffPDBtC/bYXT5F/NcZez5m+/CgJ900knp7/feey9t9/zzzxdbbLFF6vpPDwFa9XfcccdklOO7chi7f/LJJxfHHnts6lnAuWPSMeIrWwSiGHLO5c9//nP6m+/kGJzrR3Q3GtlmyZIlxR577JGM/csvv5y2o+LgwgsvTJUY+XHOPPPM9N3MH3DccccVhx12WJpPgOfI+XCMnXfeuVi2bFnaj+un4uKEE05I69mP87322mvHzlGGl34x9rfcPy9ljA88vbByfQ4t6uj6u1+qXN8JrYw937Foybvpb2bkx+S/vfyDsWXrbXJu8fjzi1PvAXjihTfTstj/x3+6rHhu/ttpVv/3V39SzH701THTzeSA12XnfvT5D6br4W+Oge578vXivQ8+LuaMnMd/+fZhxU33vlysev+jNFRg4Vur0iSDrbaP404W02rsYdTcrzN53khe99nGG6dg7tP99hu/TkREBp40E37JvNcx1ZOsDqux//Tzz4ob5j6czP0vrjxkbB3Kjf0Jj1xfvP3ByrT9Ox+sSp9ZfsEzdxUffPJR8X8d/ZuxbTHSGGr+Xu/cnYvHF88rPvr0k8QTb85Ly2LbnPtef66Yv/zN4rm3X0vbvvfx6nT8WP/me8uLp956JZ3HoneXpmV1x+dzrlh+49xHindHjr3ms0+LV1a8VWx9yylj30GFwexXnyne/+TDtP9f3n61+MnlB46tZ1v2YV/O76aXHxlbVzb2nVx7twyNsX/44YfTOkwpn3Njjxk++OCDUwt0vg+t9lXGPtaXu+JjmNk+N7gso8X75ptvHluWw/G23nrrcS30tIbvs88+xV13VQfHYcjzFnrMO8sw9Hzm2jD+YfRhwYIFaRu25XMcZ/ny5WPb0DLPsseziUVWrFiRllGBEPtxzvFdQMUAFRph/mV46Rdjf/nta1vsGUNftT4nWuxPvvyxyvWd0MrYPzN3SfHCgnfS3xh7Juw76bJHiy0Ouiktm/vasjRD/76n3F3sf9qcZPrZJ/bHfL/25spi1+PuLA49+75kym++7+W0rh1jTwXCgaffk4YecG+YVPCIcx8oNtnv+lTJsGzl6pbbx3Eni2k39jBi7itbYkaWpy6a/9v/VnzyzjvrrhcRkYFFY/8FU23s/+ak3xfLVr+bTHOsQ2Hs9737wuKzzz9PFQDbjBjbm19+NH3+022nFd89f/d0jIPuvTRt+/+cskWqJDj6wavT57nL3ijeen9FOsb+cy5OpvyZJQvGvicHY49hPv6R65MBvubFB1KPgi1vOimtx9hTiXDSozcWW9x0YlpWd/xvn7NTMtYvLl04ZqjpmfDhmo+LUx67qdjh9jOScV/x4fvpvFl/14Knk2E/5qFriu1vOz2Z+HnLF6d1XCvrnh65T6w744lbk2G/9C9z0vqyse/k2rtlRhj7pUuXpnW01Of70OreibHH6LINBpjtA0w9LdyxXc7VV1+dutOXl1Op0Gr8fhjyvOv7G2+8kZaF2ad3QlXFwOGHHz42kWAcJ+4JMDlgfpyAZY+NjlOl4oLrya+x1T2U4aNfjP22h9+aMkZauOvMKTPnf/jx2pnzMblV23RC2dh/+d9OSAaeZaxjGcb+jodGCr7RbbYenQ8A0x7L9jppdlrGObEc/f6AL+YAOPvaJ1OrPn+3Y+ypDIj1/DLAlgevrVAAxv6jH2x1ceX2k01PjH0Nn224YQro1tx2W+V6EREZTGaisY/Z76v+Q/nn/L+JzpYfxp6/MbIIA8pnFMb+2SWvJnMc+wGmlRbo+Pue1/6S/j7u4euK1SPGmTH7tG6jXe88e2y/vWafn5Ztcv2xY8uCaLHPly1+b1ky2/yNsb/jlSfH1rVz/Lwr/n857GfJmF/74oNj23/9jG3S+dIzgF4H/H3xs3ePradSgXP4/522VXH5c/emigX+jvVUdlAxwN+5se/02rtlaIw948sPPPDAsc+5sQ8zm894D50ae8ww21Rx5JFHjm2Xc/75548b+x/w3UcfffQ6y6HJ2NNLgL+Z+T/fDzjf6JkwUWNPd34+V/H000+P20+Gj34x9hCz4tNq///89JR11v/Nj08aa62nm3t5/UTAvCOMPDBpHhP43fbA/LFtMPbR2g5nXjOSb4xsE58Duskff8kjycTTPb+8PmjH2NMLINbTFf/Ge+YW76z4IB2Xyg9EBUjV9pPNlBl7hhFNYHbjTw86aG1AN5LfVq0XEZHBRGM//j+Uf87/mwxjDy+8szCZZwwuCmPP5Hp0X4/tgC7oGF7+Pv/pWcXyD99Lfz/yxkuplZy/z3zituKTz9aM7RNEq3x5eZWx51jRys253fzyo2Pr2jl+buzpUo/2nn3BuO1pkadigqEIKDfjOQ+PXNvLy94Yt4zWePSts3YYZ+w7vfZuGQpjj9FlcrhWk+fRfZz9oot60KmxD3P95JNPJoOcw0R2sV0Ov6fPuZSX0yreTYv9vvvumyb/i/UB4+e7bbHnPtLLoHyNwESA+X4yfPSTsac1ni7viK7ttJz/bMcr0nj1Ey99NBni0GTMiA/RYk+PAaB1/P/67tHjtikbe4YAYK7zbTDfGPtTr3i8OO3Kx1Ovgnx9TqfG/trZLxYr3/sotdRzbszejwbd2GPMU2A2YtSr1rfi0wNHCmn2u/DCyvUiIjKYzERj34qp7oofn2lJxnjSMo3C2NOd/LrS5Hq3zHusWDKynL+/c96uaT+6pzN2/diHr03LT37sxtQtP9+PVnO2zcfvB1XGnuEB9Bjg77Kxb+f4ubGnKz3CgOf78J0PLHyh+P5Fe6X1u7Qw9vcvfH6dngsH3HNx2od9c2Pf6bV3y1AY+zCw+c/d5cYe408XdWZ2j/WAua4z9rR8M4t8fGab/fbbr7j77rvHlgET6+XmOQezzO/s52PT33///WTMm8bY1xl7KgwY28+1xTasY5vyGPtOjT3DGpgDoDy5n6Z+ZtBPxh4wrYxdb6Xlqz5M49dpWc+7x0+UVmPsc8rGnm7x6E9H3ja2jJ/JQ4zBZznadL8bxtYfctZ9aQI8/ub88x4BJ1zySNqev6uMOuP573/qi0kF9zt1Ttpm0I09XekJzD77yU8q17fisx//OO235vbbK9eLiMhgorH/guky9kBXd7qjozCgjClnQrt8O1quWR6fMbwYaMavM2afZXRjR4zFj+1oLUcxRj4HY//KirfGLWOivlkLnkp/l419O8enB0EYe6Di4crn7xv7HF3xLxkdJ09X+wuzCft+eeWhxUOLXkzd79mGrvxxfRAT8fF3buw7vfZuGUhjf99996WJ4hjvjVlndnu64ufb5sYe6LbOvrRmx6z4TAZXZ+zvvffeNPM8Y+rfGZ2UCfPL982ePTudA+uYPb6q9Rww56yPn5SbO3ducc4557Q1K36dsWcWfn6q7oorrkgVGsxcT2v9BRdcMGb2J2rsqahgFn96QXB9bMt9w+wz8V++nwwf/WbsgXHuzHi/+J33UtdzZpWfv3B5WkYX/QtufCZlkqhbcz8RYw8MG+D89jn57jSBHq3wDBOI9Zzvq4vXTp530Bn3pgqJONcHn1mUPmPQDz/n/rGeCKyrMurMeM/ke7TsUwlAl3zEeP5BNvafvP12mgSPyfCYFK9ymzJOniciMrRo7L9gOo09RnflR2tjkTD2dE1nsjzGpjN2HDPLZ8aMx37nPrV2TqEYdx9gqumyv8/dF6Ru67Tyl1u9A4w9x2WMO+aXsfUMNfjDjcen9WVjD03H5xgME8BUY8ivfuGBZOSZgA/TTTd/jHlMrkdPBD4f9eBVaT3zB7y6ckla940z/5TWcY2s4/5QkRFj9nNjz+dOrr1bBtLYB7SeM4Yd81netmzsMbv33HNPmh1/zz33TK31119/fXH88cen9VXGntni+a13tv/LX/4ytpzftMf08jN3jJPH1LdqsQeOw2R5tNIDre1RUVBFO8YeMOkYeX6fnh4JVFbk+0zU2EOcM/eY62fcPfvm+8hw0o/Gvh0wyaFuzP1Ejf0/b3Fhmp2eLvl0u3/s+cXFtzc+Z2z9L3a+Ms2qT/d8ZrS/+7Evfu6OdRh/xulj0u98eO21sK7KqH//jxeligS2X7pydarYYFZ8thloYz/CZyP5KsEZP2PXONZ+ZP1nG220Npjz5+5ERIYOjf0XTKexBwwryruMM4s8Y+3ZHoPKJHn5PhhjupnHz+AF/3zhnqk7Pd3SMcGPLX45zVafbxNg7PkZO3oCsC2t41QYxPoqY990/D/efFIy9qzHcNMdnvvIz9lxvnTDj1n3gUn/GG+P+Wc9PRXyn7tjuAFGn/uAyWfyvFhXNvadXHu3DJSx7wZ+Tz7/aTjAFFdNbCcykxlUYw+TZe6lnqk09mtee634/L/+17UB2v77F5+06iW0alUy82z3+Te+UXyyYkX1diIiMrBo7L9gqox9v1E1xl7aY8YYe1qzad1nfP4rr7xS3HrrramV+tVXX63cXmSmMsjGHjT3U89UGntYc++9RfG//+8pSPv8f/yP4tMrryzW0GtqxLzzL58///u/XxvIjWy3puIXQkREZPDR2H9BzJY/0dnvBwWN/cSZMcaeCesYJ87P0tG1nC725VnyRWTwjT2EuS93l5fJYaqNPax56qlk6qsCt+Dz/+//S9tV7S8iIoPPmuuuq8z/W7Hm+usrjzNZ9NLYzxQ09hNnxhh7EWmPYTD2wAR1Vcule6bD2CdWry7WXHtt8dnmmxeff+1rqXWefz/bYou0nPWV+4mIyHDwwQdr514Z7cXVkpH1n+2005SXCxp76Wc09iIyjmEx9jJ1TJuxFxER6SM09tLPaOxFZBydvOMHnT51M69L/8Jzr0oPIiIiw8xBcy6pNFQi/QDpsyrdBusYe34O7sEHHxy3TESGB97v/Gcf65jz2IJK4yfDDc+9Kj2IiIgMM3MWPFNpqET6AdJnVboN1jH2ixYtKi677LJxy0RkeOD95j2vWlfF7w+4vtL8yXDC865KByIiIjOB319/XKWpEuklpMuq9JqzjrGHOXPmFLfcckvx5ptvrrNORAYT3mfea97vqvV10DX7v//bCZVGUIYDnq9d8EVERNZ2yf/vJ2xaabBEphPSYVMX/KDS2ANddWnZO+OMM0RkCOB9brcLvoiIiIiIDA4tjb2IiIiIiIiI9D8aexEREREREZEBRmMvIiIiIiIiMsBo7EVEREREREQGGI29iIiIiIiIyACjsRcREREREREZYDT2IiIiIiIiIgOMxl5ERERERERkgNHYi4iIiIiIiAwwGnsRERERERGRAWacsf/4449FREREREREpA/J/XvOl+pWioiIiIiIiEh/UTb7Yy32+QoRERERERER6T/Cw+c+PrXYl/noo49EREREREREpA+o8u0BBv9LsVF5RxERERERERHpL8K/5+Y+GfsPP/wwreDf1atXJ/g7/ywiIiIiIiIi00PZk/N37t+DZOzzDT/44IMx3n///XGfc1gnIiIiIiIiIt1T5buhvC43+bnB/1JsHLz33ntjvPvuu+PI14mIiIiIiIjI5FHnwXPfHiY/DP6Xwsyz06pVqypZuXKliIiIiIiIiEwDVb4cwuyHuYdk7FmZH2DFihXF8uXLi2XLlomIiIiIiIhID8Gf49Nz3x4mH4NPy/2Xymb+nXfeSSxZsiTx9ttvj/0dvPXWWyIiIiIiIiIyCZQ9d+7Dw6OXTX5u7r/EiqVLl47tyEHffPPNYvHixcUbb7whIiIiIiIiIj0AX44/D/OPb8e/4+PD3NM1/0vROh9mftGiRcXChQuL119/vXjttdcSr7766tjf8VlEREREREREuqfst+NvfDn+HJ8eJj9a8WnBD3P/JRaGoQ8zv2DBguKVV14Z+xfmz58/RiwTERERERERke6o8tu5Lw+THwYfH5+33H8Jx8/K3NBzsJdffjkxd+7cdXjppZdEREREREREZBKo8t3hycPsh8HHv+Pj6ZZPqz1j7r8Upj4M/TkPzS02veklERERERERkUlhvf3vTVStk2bw6WHww9wz7p4u+bTaf4n++tFST23AWQ+8WHkgERERERERkYmgse8OfDp+PVru8fF0yafVPhn7aK1nI7oAnHn/C5UHEhEREREREZkIGvvuwKfj18Pc4+OZNZ+x9nTHHzP29OF/4YUXNPYiIiIiIiIyqWjsuwOfjl/Ht4exj+74TKL3JabSp68+7p8Nz7jv+coDiYiIiIiIiEwEjX134NPx6/h2/Ds+nu74Y8ae/vnz5s0rXnzxxeL555/X2IuIiIiIiMikorHvDnw6fh3fjn+PcfYxgd44Y//cc88Vp9/7XOWBRERERERERCaCxr478On49bKx52fvxow9A/A19iIiIiIiIjIVaOy7Izf2+Pd1jD0D722xFxERERERkalCY98d5RZ7fPzrr7+efvJOYy8iIiIiIiJTjsa+O9oy9jTlM8PeX/7yF429iIiIiIiITCoa++7Ap+PX8e3xW/YY+3Fd8TX2IiIiIiIiMlVo7LtDYy8iIiIiIiI9RWPfHRp7ERERERER6Ska++7Q2IuIiIiIiEhP0dh3h8ZeREREREREeorGvjs09iIiIiIiItJTNPbdMVDG/j+vfLL4l4PO7hqOU3V8ERERERERmX409t0xUMYeU/7Vn23WNRyn6vgiIiJljn54YbHVbS9XrhMRmQoOe/D1Yo+7F1SuExlWNPbdMZDG/o8HHF3sf86VHcN+g2rs71u4qkC3vbJ8nXXo7tdWrrNcRIaPJ956r3j8zfcq1/UT73/yacqb0CeffV689f7HxZUvvlO57XTA+cxuM5/kPD/69LPitVUfFQfe91rxwSefFSc//kbltiLSmgPue7WYt3x1cev8dWOXfuT+RauKdz/+tPjs889TnvHkSH77pzvmVW4LD76xqljx4ZrKdZ2CkV/50Zp0vDOeerN4fST/uXehsZ3MLDT23XHtS+8MnrHHpE9E7Dfoxv69kQJnt9mvjFuHNPYiw88LSz9I7zt67p0PKrfpFwiKXx4J6C9+bklx3dylxfwVHxafjgTL1478XbX9VPPo4neLs59+s3JdmVdXflg89Ma7xSMj+xDgL37v48rtRKQ1mPp3Pvgk5Ve8R3cs6G9zH+/7Y2++W1z2/NvF/SNx18effl488/b7ldsD+duDi1ZVrusUvo/KxBteXpYqFqlQPOKhhZXbigwrg2rs973n1eLg+1+rXDedaOwHBIz95yPXsOazz4unlowvZJDGXmS4CVNPPhDqZ3OPsS8HxK+u/Ci1SOXLppqdZs2vXF7H8Y8uGqtApRWtvF5E6sHUvz1q6kP9bO4JyulZ9HQpvqJCkLirKh+pa8mfCOQ1hz6wNr/h/pUbcURmAlNh7N987+PUE6dqXTcsfPejYvWaz1KDBRWCc5etrtxuOtHYDwgY+5GyJRU6FDKnPLF4bB3Kjf2sV1eMdiVb28LP51hHC9qSkcKWxEjrGbXCtEzRTe6DkUCcZRTGp2bHv+DZt1KtO+s43j2vW4kgMp2EqccYL/twTbF09dp3GPWrua8y9rSCofNG8pRYRkUl+RBBNdd03IipjnXkexwHQ0D3VFr+Y90Jj71RvDFSWJMfsv+LI/cogm8qD+jGSj64fLSbLNvleRetY3Fstrk6GyZwV5aHsk05zyMf/nCkMGdf8saL/rJk3HqRmUyYeiohiS8Q3fGji3s/mvvbX1mezpNKvXz5aU8uLhas/DDFROQLxEFcC/nJnQtWpK76xEWxPS34XDvXSb5E3p0fry7fadq3LrYTGRYm29jT64V3ivyId6xqm4lAHLPqo0+TR+JfYhhinKptpxON/YAQxp6JVCgUCFpjHQpjT+A7kn5T4EkCJrDm86WjiQ1jz2dqoa944e3UPZbjUljcPG9ZcdMIGHwKMran9pjaKGqhLnh2SRpPxvZxPBGZWp4fM/UfpgncMPWYSVqL+tnck0+Vjf3ecxakwjUCUuYKIH8h76FA5Now66wj/yKvYswrBSh5Fd1iMQ2sJyhetnpNGg/P/hwnvg9jz7YE4hS6LMuNPXOVkI/R9fbCEVM+dyRfZHsmySNv4xxZd9bTb6ZzZFv+Zl8qIijAGa/POXO+dJnl2lgvMpPJTX10UUd/GcmjMM39au5538kjqtYF5CeIvJh8B8OQG3sqFqnwI3465+m3UoMJxyR+Y31dvtO0b1NsJzIsTLaxJx/iHSVfKleWdQN+7NhH1lYE8v4yH095m16gsR8Qwtjzd9QsXz/aeoXC2C8aCfTffH/8eFAmrWLcFn9j7N8ZCZ5jHQUTisIDKICjuyy17QTosQ5o8Z/Ml0NEqsFUIoK9mJU9jD1/5+a+3ybUqzL2QLCKWedvzHie91zz0kjwOnItFJgE0eR5BL2so5KRa6QgJahG5z3zRcs/x4l8jvyrXNmRG3vyyLxylHtLvkjwzPGvylrRgH3njOSxbEdLGsF8rMPIEJxP1jhbkUGG+Sh4h/P3ARFX8Hdu7q8ZCUBjm17DO827XbUuIE/CTOdd5HNjz3LysHycLfEXlZL8XZfvNO3bFNuJDAuTbezD0D884mdouCyvJx+ioYA8ibglj0nqegZCU++9ifZI7AaN/YBAAiDIjc+MFyF4JbBHYewpYEhosR0QXIdRx9iTyPP1KJ9tPy+o5i3/MBXSdD8LRv4fVziJyNTwwEhwTIt9mHrIjT2QB7y4bHXaNpb1A1XGHhOMCJCPGTHQiEIt8hb+Rhh2tuVaMc1UbLBPjGklP6SgzY+dQ35X/u7c2HNuuTkvw3dR0PPd7If4zpMefyP9TQCeb0+e2g9j60R6De9BeegKCmMPmHtiiHIFWi957M33avMUiMrGfFkeLwG9eDDgBPMcjywtekA25Tt1+zbFdiLDwmQae4w57xF5DfkOf+fDXyjTMd1UoNEThjiKd5wJLFlf1zOwqfdeNz0Su0FjPyCUjT1dtQiC6VKPwtgzzqNccDw7kgipIefviRh7xvTSDT8nH+MvItNH2dj3K1XGnsIVUasdxh4TUM5f8t9uvuHlpam2nQKSvIh1tJ5ToObHzmky9uSH/Gxgvj6g0CdvnTOybRTQFLjkwUeO9nCikM/3IU8lr8yXichaUG7s+xHGy6PoWhvwM5cvLVud/m0y9gTlmHLyq+hpRA+GMOd1+U7Tvk2xnciwMJnGngntiB3iMz1kGAITn3mnWB+NBkDlJKa8rmdgO733OC7bx/p2eyTG9hNFYz8glI090NWURITC2NPVI2qEgpgsj787NfZUHPAd+dgRZ4kW6R2DbOzpTkqAGp8pGMutUPHzThR8dJ2L5QTW6MZ5y9K4UnRuVuDeNLI8vq/J2JNHlnsd0euBWnVq4fNgmUKYfaOAptsdrXuxPgrz/FxF5AtQvxt74hp6DZWNN+PhWU5X+SZjT6UgimAdiLfCnNflO037NsV2IsPCZBp7GgNyI0/ZTRkevSB5v8pDXALKfMr+qnVNvfe66ZHYLXTp19gPAFXGnoRBjRAKY08NE2mHwoZWMYJmPsdYtk6NPYUdwTc1xxQ+JBjWlbvaicj0MEjGngKVFnjmA2HCKQq2mBsEMNFhminsCP4x1RS6tJiz/b0LV6YeStRmk5ed/uTa3kLkY9wL8rwbX1476WeMq28y9nSzIz/FjDO5Hq1k9ABg/BsFLN9DrTvHZdgTYuJQ9uU8KIzZjgoGAmsCBSs8RapB/W7sIfIj3nXiHbrJ8q7/ZTQvaTL2BPusJ9/j56/IV1CY+bp8p2nfpthOZFiYLGN/xlNvpneI94R3K0A0BLANXeAp48v7Ql3PwKbee930SMyPNxGufmGJxn4QqDL2gKFHYeyB8R4UNGxPkEwXs1jXqbEHZs8ngOZ40VUsnzxCRKaPQTL2IQpHJnoqF4LUUGPGyVfIXxjPlm9DXkSBxzryJPK2WMdwIApkzD/BNy1fkS81GXvAuGPIERPX5AEyE+RwTM6L7q60jEVLHpUOmJS157z250EprGNfERkPGgRjD1TcMU6Wd5s8h/c+WtKajD2Qx5Bnkd9gyjHqeat6Xb7TtG9dbCcyLEyWsaeijveJ8ew5xFCvjE5KSQs+73veWk7FG6a+qWdgU+89YoSJ9EiMZRPl3IdHYhSNvYjIYEC3rSiUpDsIsgmUaZ2rWi8i3cM7FkNZxHxHpI7JMvZU8FdNasvwGgw4w2toeefvectXp54waxtRPy9umb/WYNf1DGzqvddNj8RuwKdr7EVEZEZCDyR6MlWtExGZCsx3RKqZDGPPUBdU9RNyMTv+HQvW9lRmG3rP0BMG4x4/xwvRMxDR8zDvGdjUe6+bHondoLEXEZEZCTPmMpnfFS+MHyIgIjJVmO+ItGayWuwnEww/lXFV6/qNgTT2fzzg6GTSO4X9NPYiIiIiIiL9RT8a+4Pvfy21yg/CJLkDaey7RWMvIiIiIiLSP/SbsadLPV3lB2XozEAZ+/+88slkyruF41QdX0RERERERKaffmyxHyQGytiLiIiIiIjI8KGx7w6NvYiIiIiIiPQUjX13aOxFRERERESkp2jsu0NjLyIiIiIiIj1FY98dGnsRERERERHpKRr77tDYi4iIiIiISE/R2HeHxl5ERERERER6isa+OzT2IiIiIiIi0lM09t2hsRcREREREZGeorHvDo29iIiIiIiI9BSNfXdo7EVERERERKSnaOy7Q2MvIiIiIiIiPUVj3x0aexEREREREekpGvvu0NiLiIiIiIhIT9HYd0fHxv69994rlFJKKaWUUkqpydKRFz+fUBPTW2+9pbFXSimllFJKKdU7aey7k8ZeKaWUUkoppVRPpbHvThp7pZRSSimllFI9lca+O2nslVJKKaWUUkr1VBr77qSxV0oppZRSSinVU2nsu5PGXimllFJKKaVUT6Wx704ae6WUUkoppZRSPZXGvjtp7JVSSimllFJK9VQa++6ksVdKKaWUUkop1VNp7LuTxl4ppZRSSimlVE+lse9OGnullFJKKaWUUj2Vxr47aeyVUkoppZRSSvVUGvvupLFXSimllFJKKdVTaey7k8ZeKaXUpGurrbYqvvzlL6/DnDlzRrcYbB1zzDHF+eefP/ppuDTM19aJLr300uLQQw8d/TT56vf7TID4u9/9rli5cuXoki905ZVXFjvssEOxevXq0SVKKdW9NPbdSWOvlFJq0oWxv+SSS1Ihk/PBBx+MbtFajzzySPGzn/1s9FN/ajpN2apVq1KlyBtvvDG6ZGqlsV+rmW7sP/zww+L2228vPv3009Ela7Vw4cJi8803rzT8SinVjTT23Uljr5RSatKFsb/ppptGP3WmmWTsP/vss9G/WmsmGvvPP/989K+pUTv3fTKNfdX39fo+T/QeY/TLZl8ppSZDGvvupLFXSik16Woy9rT67b333sX666+fWv/uv//+tByzk3fdf+aZZ9JyCqRDDjmk+N73vldss802xRNPPJGWV6lu2/fff7848cQTix/+8IfFb37zm9SroJVJqTtOK1P20UcfpfO+4YYbii233LL4zne+Uxx55JHpe/P1fC/dnK+44oq0/Nlnn01dm9dbb71iu+22S5/RHXfcMe5+YDYRxznrrLOKH/3oR+lazjzzzLQsxPedcMIJxQYbbJCu86qrrhpnLm+99dZi4403Tud38MEHF0uWLBlds+61sY77wLPinG+55ZbRNetql112Kc4777xizz33TNtzTQQVIYKOww47rPjud7+bzuuaa64ZXbPWSO+7777F4YcfXnz7298u1qxZU7t9WXXf3el9R5zPfvvtV5x22mnpeL/97W/H0inCGHMvNtlkk7R+n332Gat8afV9ucr3me/ecccd07nw/rRK43/4wx+Ku+66a/RTkb7zK1/5SrFixYr0+bnnniu233774vvf/366n3FOvEss45xIM2zHNVx99dXp3rLsz3/+81hLPO8o1xBpF9WlG+4/x+L58by4n6+++uroWqWUapbGvjtp7JVSSk26mow95uDiiy8uli5dWtx3333FN77xjWLBggXJzD3wwAOpxR5zhBn9+OOPk3m67LLLirfffjutx/hRUJXVtO0pp5ySzBqF30svvZQMDWalrKbjNBn7Y489NpWXGB+MI+YwX7/XXnsV8+fPT63xXPe3vvWt4rbbbkvbc9/4zHdR6UBhzD6YpKiEOOqoo4qddtop7Us5jZHj2kKYTK4Tc0YZzv2++eab0zq6V//0pz8tnnrqqWLx4sWpogOzGMfOr43u2BhTzp/zwWxSmXDvvfem9WVh7nj2bIshPPXUU4vNNtssPUfgPM4999xi2bJlxYsvvpgqHh599NG0L0b6q1/9ajKtixYtSudTt31Zdd/d6X1HnA+GGfPOfaRSgc+kHcR8ET//+c9TOuL8Tj/99GLrrbdO66q+r6z8PvOdX//619N9xaBzD0hvYdZzUUmAqQ7deOONqZIMcZ5URD300EMp3fKOkY65lxh7zunss89O2/Fs+b5f//rX6RxJC1QEHHHEEWPHYvsw9k3phvuPoee72ZcKmV133TWtU0qpdqSx704DZezpnrnzzjt3DcdRSik1dcJgYdZpfQwwmgjTg0GixTCEGYiWxXJXfFpJwzCFaAWvar1t2hajkbeeYsry8wg1HafJ2FN2hmiJ5V5QaRHrKVdDJ510UjpeLow7rfCo3BUfE8pnzFOIgpt7isEMQ0alSQgzzPFooaXlmZ4AIc7rF7/4RXoGKL82zCvGj21CGGEMXZUwd3mFDnMqYFCJITCAr732Wqo0CR199NHFRRddlP7GSB9wwAHpb9S0fVl13z2R+x4t9rl22223NHEcWr58eTLPIZ4B38H3Vn1fWfl9Zp/oXRCiEuPJJ58c/fSF2I4KiJi4bo899hh7nlQuUBESolKD41ApgrFnvzDiiIor9o9u+aQtKtpQbuzbSTfc//zd4r3i++LYSinVJI19dxooY09tcZVR7xSOo5RSauqEsafLL4VMgOkMXX755al177jjjksmGiMUKht7Wh1pzaQlMsAoRyt4rqZtMUosw7DRUl/VIoqajtOJsec7WIZpqlpPN3/Mci5aiXfffff0d9nYP/bYY+l8yqI7OOU0Jp5W9SpRhnMsDHMuuk/zTFB+bXRtp0IjFy3dVCLkhjtUNteIoRb33HNP+puWXo6PScRwYvzCiGKky2Pa67Yvq+67J3Lfq86H72aIA8Kwkoa23XbbdL9/8IMfpO/geVV9X1nlNPT000+nFn56AdAtnnvcqiGC63r44YfTd5FOIx3TlZ/KjDzdchzeMYw9FWy5SJP0iqASiwqLvHIhN/btpJvy/Z83b17aJ68UUkqpOvWzsad8pSyCqgaBftBAGvuJGvNu91dKKdWemrriI1o7yY8xUnSJp9BBVcYeI872Oe++++7oFl+onW1pHcXoYKyoXKhqFW06TtmUhaoMHS3nLGtl7OlSn7eEIu4dJg2VjT0GEJObC5PJuGeuBTbccMPRNeNF92uOlbf2Iwws14zya6Nyhs+56LbNMbiPZVWZa4wjLf8YvBgnH63NVOy0MvZN25dV990Tue9Vxp55DcLYsy9d/QmauP88H75jIsaeY1Axw7OLFnXegVbGnjkTOA8qLWhxD3HuMXwkh+deZewR30eaohKHMfjR6p4b+3bSjcZeKdWt+tnYY+jJ04C/+1EaezUtygMEpdTwq87YU8AwyVZ00eVfWj2ZcA7R4pwbe4wZXX4/+eST0SVrDXSV6rbFYGBa8p4DmJmDDjpo9NMXavrOJmOP+Q09/vjjqaWZ768yfIwFD7MYopU8egdQmcA+YewxanzmPoZoSWUZBTfL+Tu/TkxWTHq30UYbFXfffXf6G3FetBJHF+z82hiDzRj7vPs2rdwY5iph7hjzHYoWZbqCE1xwXvlvnzMOu5Wxb9q+rLrvnsh953zKXfH5Dkw1ott+mFpETwa+YyLGnrgkKhQQ95seAK2MPWUq67lfeUzDuHfOKxemHFUZ+1mzZqXhKCF6g0T3+XK53ZRuBtnYk99wrlXkFSfTIYZT5PNlTLZ4nmeccUZ6dvQ0IR1GpepUqFWF0mSJITFM+sj8D1QE8k6W0xzvABVem266advPs+m4VGySf9ArhopU3uU8nyT9812sp4cNZUpZ5NUXXnhhqrBUa9XPxp50EPlCvxp7hqtp7GeoCI6mKzPpxtiXW6u6FYYjn1FYKTX54j2rajkkGKLbMK3LtMTSmv3888+nrseYCkR5Q/dh/mV7TBKFKPkV+QAGim7UGOaymrZlkjmMD4Uc+RJlAua+rKbjNBl7xoqzH8Ed49EJpPP1ueHjPDBTtADTqk/3bj5TGCOCSSaVwzRFl2vOi/HeTKjHuWEKOacQho9z4NicA4Hlddddl9aR/1FpQSst9wETgWnj3FB+bVRssI7zZ9voDVBu6Q5h7tges0g3eiZi47sxisQPBPikC86byh2ec9ybsrFv2r6suu+eyH3nfPg+7juT+ZFeqShgW0RvBio4SKfMo8As8HwHFSpV31dWfp95Fgz1ePDBB9PzwlCwP5M2thK/uhDfF6KCh7RCJRnvG88LA0e6qTJYmIotttgifSdBH6aSdI7K5XZTuhlkY8+9iiFDTDzJtcXn/P5Oh6bS2PMsyAMZ8kGaJe2SH2JYqnpAVanco6pJU2nsMdJcD+8S7yjdo3/1q1+NVb4htsFgk655H9p5nu0clwpAtiH/5T5yD6Nike+gNxh5LmkIU897SVmHeGfIn1nG+1lVuTxT1c/GnneG50xsgCfuR1HmaOyHTEyW04409kqpqRLvGe9tmWiVp0yhKzQBH+Yob2klqCLQoWsyJgLx/u+///5pewpWTF6rvK5uWwo2xgVzbFpiCM6iRbOsuuPkpixXGDq2JZCkAoPAObqttzJ8zDTO9oyPxqSXx+8x/pmWnxjPTCs2506rLUabmc7zMe8E6czMz3Vixtg/zh2jy3Pgmgg+MdMYm1D52ggI4j7wrMrj0nNh7jDetHTz3VxLGGVExQjd12kp5Pwx7WFiqrq+121fVt13T+S+cz60fvB9HI+eCzFRHOKZUobSfZ1jsI6x6nxHq+/LVb7PmAaCfL4Hg0zvgTvvvHN07boijVG5Uxa/XMD5UEnBexit/lUGizRDxRZGjfR14IEHpkoRVC63m9LNIBv7XFxX1bs9XZpKY0/sQ76X53nkC6QTKqraUS+NfTnPp2cUlW+RvyLKEn6JJDR79uyUR3YSfzYdlzKKd4BrC9EjivcO8R5QvuXiJ0Nj4k+OS55MxTa9yDT2X6ifjf0giIokjf0AKAIeuv0Q4FDwU7MfokCN2kN+wxcRWLT6nWM+U+AGsZzaqFa/6UuGSuBBoc7+dPnL0wOtGK1+67gcINSdWy5aUvLz5D4gghECWfYl0Lz22mvHBa0EPHGe8bu8cQ4B90wppSZT5GPkL3WGbphVNnfTqV5+txoeVRl7umFTERPC2PGexzCGicQkIY5BhRCVdKyjQic39sRhVDoRl2HAqbhBDKPAYOdmFzMZlX9VouKmqtKCeC3/pQtiNeJN5vLgvIn9+B7uQR5HhbGti//C2PNzm1QyckwMLvclRIUa8SuVZPzkYjTkRH5KpQPHzX91AdEThVb4XMSNeXxH74T4NZN21XRcrpfzih5UiGugRw/3CSNFxVYu7l3EsLk09uOlse9OGvsBEZkBtYM8AzI6MnS68ERtOZkNP0lE6xYPDtFKRCZPNyGeI5lmFBYUQhhrMpow1GxHDT+tMWRaBEh8JjEgCiYyVroSsYzf0WW8I6L2l3VULrCu/FvHZWNfd265KDy5HvbNf8P5+OOPT4UvmT+FIt8d45da/S4vhQjXSvdF0kA+dlYppSZDGnuNvRpsTcTYTyQmQcRO0RuF4JtJPenlE/EQ8RRmkWNgImlxp3cJf9ObkTgwzoHKAlqZiZVaiUoH4seyMLEcKyoJGI5AzxdiNzwA+2HM6X3B8BAqFMjr2L4p/sPYc69OPvnkdI30bKF3SNwfvoPPLCem5V5vsskm6R5Hfoo55/5xzXUizsvzAT4TO9PTh586pTs9jVJ5S3w7Kh+Xe8x5RfyMYllVDzCeDdfINZSlsR+vfjb2eDC64UO5V12/SGM/IIoW+1x0wcNsIzKc66+/Pv2NojaRDDPEgyXTj/FF5a74db/pS6ZGRk6hEyIDZjZrMnoy6LrfOs6NfTvnlqvcFZ9t2Dav8ea7KCwRGTjjqThnxPfF5D7IrvhKqamSxl5jrwZbnRr7bmISftWA4RfRaIEwwGHsMaDER7lo8Y7WZMZpc24II40hrhOGOx9OEuI6uB6G+ES8RjfxEBOaEguiclf8pvgPY08jUX6NcU8QQw/yCTGpLOAa80kv8SHtiO7y3IMYlsT1sD+T5tHwNXfu3NQbtdNhqOXjkr9z3NzYxwSm5UoDnjtpisqfKmnsx6ufjT2GnmcM/N2P0tgPiKqMPS3uFACoHNA0/c4xKht7xgaRGeeiOxXmPWZlzs14rqbfOs6NfTvnlqts7CnQ+MwxArp5UaOMKDT5u+p3eZHGXimllFJV6tTYdxOTYHDLpq48xh5DSos1FQB05SeuinkTMNWYVkQ3/qZx8kx22KrFnuNiqjHxVAC0UtnYN8V/0RU/F8eg9RwxzIBeCPn9Y18akjqpKKUFldZ5vjsUsSseJhSVGLkpr1PVcfmbY+St81Wt+IhhDDyjVr0ENPbj1c/GnmEpPGPQ2E+CNPbjjT3dnmhlR2VjT0FQ9zvHqGzs6RpfnumYY5LpkiGRkJkdtEpNv3WcG/t2zi1XlbGnkKDHQE7e2k+hy/dQ4OS/y4s09koppZSq0kSM/URjEsbDR7f8UG7sCchp9OA7osUbUx3GnpiKX1PAVDJGv6qrdy4mwbzgggtGP30hGnWigoDvYrK5Viob+6b4r8rY02uA8faIGJMKjvL9wzS3a+ypPKHSI+9Viqio4P7k9yViSvZpUqvjspxj5M+YCgB6JkTPDMS94rlE/Foljf149bOxH4RZ8TX2AyKMPROT5OJ3n2NCkLKxJ1Mk0+FBhvLfOUYUMLmxb/pNX2pX85/eIXOkgKD7FV3AGGMVBQ+ioIga69zYt3Nuucq/4RwZal7rTeYdY+brfpcXUWuusVeqd8rzgxAtWXTnpIdQrxQBXwxxysV40+jy2o3ozkoQOxWqqgBWSnWmKmNPnpCbL1qiySuINbqJSaL7fG4GibnC2BOvYnxDxFgYxTD2iPOl2z8xWH6cKtF4gynPW5XZh+7pkb8Rm3E9uWllIriYEI8W/dzYN8V/VV3xqQyIiZ4Z886wz1zREt6OsafygLmTWk0aSKNVHvdzLdGboE51x+Va6FmQN0Zxf/LZ+EkPbJNPQl0ljf149bOxHwRp7AdEBGxkjNQa8mAoZJhQJYxw1dhCTHvd7xxzDH7jF1NNJkWwzXeQ8VNQlX/Tl+OTUZMWSCBkxNT+oqbfOi4H8k3nlouKAyZ14ftjBlK+m4oNMmgSMWOXoiCu+11etPfee6fvZz+l1PSrnB+Qp9CqQrDay/cyjD2tS+VKxsky9rTqlGdLnixp7JXqXlXGPlrlaXUnJqK3JHlFGPaJxiQYWGIl5kjib+JtusGHsef7yBv5FST2p7s935s3shAXsix+Sg1Dzud8xvYQ8RTfTUUA+S5w7rSek/+FuAeM3yev5nuJFflNdsQ+GGP+xfw2xX8xeR4GnnsXk+dFKzgxKDEeP6VIww/7M+yA828y9lSgcK7kz8xxwDUEMeafcoWf+ItnR+Vx9HblHPJfAwi1c1yGw3IviWNJB7TkRuUH23FPqBTI94Vy5YvGfrw09t1JYz8gImCjdpOaXDJMakcffvjh0bXVxr7pd44x7xQ2dIuPALvuN30x/7Q0keHSNYzW/Tw9kGha/dZxOZBvOreyaM2jIIiaUwoTehhw7hyDAiOOzXHojUCNMvvkv8uLKDTI5GPiFqXU9KqcH/A7w+RFvRZBF+dFnsTvl+eaLGM/lerE2BO4KqXWVZWxx4wRV2C6iW+Itxh3Hca+m5iEYzBEkHX82hDmPR9jzxht4i7iPr6XnpR33nnn6Nq1343RjgpDhkySj+Xjv3PRC5L4i/OhmznGnngwF9sce+yxKdbD9BODRZ5BLIgRZR1mGdXFfxh7TC/nznVwf2ixzw0uM+kTe9KYxL2IHglNxp77yPoq8l4NzOhPjzCumWsnBkXcR3xBWe0cl/vLc+a5kS7owRq9EugVWrUvUM7k0tiPVz8be3ww3fAh90f9JI39gMiWGKXUIInChZ/DJPglqMt/Rzg39sz1kQc9MUymbv+yCJxb/YY0eSe9gQi6CLopkMvjJUNh7Ok6S6BMmRcqG3sC4arfbV6+fHnaNw/cuSa6dCLOJTcNFLQch+CQwDZ+ozoCWgJk9iVgZjtaj+jOz/Z8L7Nqh7hWzpPAlfMqXysVwKzj50WjG2yr71dKDYYYP04eGUaZvCh6U6p6HX744WM9EVR/qJ+NPWVqxCr83Y/S2A+INPZKqUERphqDjWmnWyg/W4SpZmwmyo093RrJkzGvmFlaPJr2L6vuN6TJO+nmSasX62l5wiRHa1quMPaUe3Sz5JyiBSY39rTU8B2YZArL8u820xuIn0cKYZxj3H5u7KmQYHxtTBxF91p6S3HMMPZ8L8OVnn/++RS8U3lBJQetclRg0E03utxyrVQqENhzj9mOzxT0CGNPqxWtbBTwdd+vlOpvkXdi6qmkI38L0dXdd7g90YuAfFD1j/rZ2FMGa+wnUWHMu0Vjr5RSUyfMMOMm84CJru0xBrTcFZ8Wbbpfhpr2z4Xxx7y2+g1p8s582A3BMNtHt9VcubGnrMOs04UT5ca+6XebKWOYQwRRCYBZ5ppRbuxpTWcyz1x0s8WQh7HPz5Puq/l9ooWOY0fPAq6V88zFeVCZgTD2jOUN1X2/Uqq/Ra8hfk2IrvSaUzUs6mdj76z4kyzGtVQZ9U7Jx90opZSafNEVHRNLAUhrO2MnaYFHTcYe1e2fizkzOBZdyYMY54mqKkWZeLRqfFxu7BFd8vlpKioNcmPPeNm6322mBZ1eAvzLDNhMPBXKjT3H41zyc6cFnp4AVWNLaaFn8s9ctOA//vjj6e+qa+Wexa+dlOdiqft+pZRSarrVz8Z+EDRQxl4ppVT/i5bsGBcfkxTxSxTtGvum/XPFbNV0Jc+Jn2rqxtgzJIDx6MygnBv7pt9tRnSPvfvuu4uTTz55rMUclY09xy2fOxNXTZaxZ0hBnbFv9f1KKaXUdEtj35009koppSZVFCKY0jDliInw2jX2Tfvnojsq27JPCEMevyHdjbFHc+fOTS3xzKYcxr7pd5sRP/XE7NfMsJ+fW27s6dLPjNNxrghDH/+Wz6UdY1/uio+Zj/G3ZWNf9/1KKaXUdEtj35009koppSZVlBO0ojMpG7/xy8RxmGN+5xg1Gfum/cuq+w3pbo094ieNWB7Gvul3mxHd8DnnzTbbbHTJWuXGHhPNUAN6IzCxH935mZkeoz5RY893Yt6ZXI8eD1xr/JRV2djXfT9iPCHXppRSSk2HNPbdSWOvlFJq0oU5xNQyAR1jtjHp8dvM7Yyxr9u/rLrfkJ4MY49JZ/x5GHtEIdnqd5tD++yzTzrvXLmxRxjqOA7DD6jEoMfBRI09kwxyn+Jn+JghO1Q29qjV96Nzzjkn3VellFJqOqSx704ae6WUUkoppZRSPZXGvjtp7JVSSimllFJK9VQa++6ksVdKKaWUUkop1VNp7LuTxl4ppZRSSimlVE+lse9OGnullFJKKaWUUj2Vxr47aeyVUkoppZRSSvVUGvvupLFXSimllFJKKdVTaey7k8ZeKaWUUkoppVRPpbHvThp7pZRSSimllFI9lca+O2nslVJKKaWUUkr1VBr77qSxV0oppZRSSinVU2nsu5PGXimllFJKKaVUT6Wx704ae6WUUkoppZRSPZXGvjtp7JVSSimllFJK9VQa++6ksVdKKaWUUkop1VNp7LtTx8Z+6dJlxfsffCgiIiIiIiIyKRx83jOJqnXSzMKFizT2IiIiIiIi0js09t2hsRcREREREZGeorHvDo29iIiIiIiI9BSNfXdo7EVERERERKSnaOy7Q2MvIiIiIiIiPUVj3x0aexEREREREekpGvvu0NiLiIiIiIhIT9HYd4fGXkRERERERHqKxr47NPYiIiIiIiLSUzT23aGxFxERERERkZ6ise8Ojb2IiIiIiIj0FI19d2jsRUREREREpKdo7LtDYy8iIiIiIiI9RWPfHRp7ERERERER6Ska++7Q2IuIiIiIiEhP0dh3h8ZeREREREREeorGvjs09iIiIiIiItJTNPbdobEXERERERGRnqKx746BMvZz7rmv+NOftu8ajlN1fBEREREREZl+NPbdMVDG/vobbqw06p3CcaqOLyIiIiIiItNPPxv7Rx97vPj3f/914rHHn6jcptcMpLGfqDHvdn8RERERERGZfPrZ2GPo/+qv/irB31Xb9BqN/YDA8IFITPCP//jdYueddymefOrpyu37kZfmzkvnvuTtpZXrO+U//3Oj4o47ZlWua8WRRx417j6WWbnqvcr9RKQz/rD5FuPerd/+9nfFmWedXSxbvrJy+37ksMOOKM4486zKdTJ1lMu7n/z0p8Xhhx9ZLFy0eGyb004/Y9w2P/rxj4tDDj2seO31ReOOJdIOb761ZFx6ymkVs2y+xZbFgw89XLkOJhKjtEs5fw3uu//Byu0D8l+2+8tzL1Su70fmv/JqcdbZ56T4rbxuwauvF/vsu1+x/vr/XGy22e+L2Xffs842VTz77HMphv6nf1q/2HTTzYrbbrtj3Pp773sgLf/W3/99se2226Xt8/VszzNg/5122nnc+hUr3y3OPff84j/+47fFBhv8W3HooYcXbyx+a9z+0pp+Nva//OWvxt61fjX2s2bdpbEfBAh0yGBenjfyPEZ44cW5xQUXXFR87WtfK1586eXKfdqB4Kgqs5wK+sHYL37zreKVBa8lyHgpCOIzvPf+6sr9BgUKmptvubVynch0Qlo855zzxvKshx5+JL1vGLSq7dshgm+OV7V+sunG2E9n3jodTGfeEuVd5MtPP/1sscsuuyZiG+7vbrvtPpa+CKwPPuTQVIG0fMWqcccTaSLylnvuvX9cTADvvvdB5T6Yu0VvvFm5Dqba2BPDlM916bIVldsHg2TsOde99t6n+Nu//X+LDX/yk2Tg8/U8ly22/GNx1FFHJ/N/y623pW2fe/7FcduVoYLwH/7hO8Vll1+R7hnPkf0ef+LJtJ7Kgr/7u78rrrn2umLe/AWpDPjxhhuO3VvSCBUJ5FPsT16EgV+y5J20/vQzzkyVPuRbxL3kW7vuutvY90s9/WzsH3n0sWTuMfV0y6/aptfMn/+Kxn4QIAP5H9/+9jrLyeiOP+HEdZa3KojKzDRjn3PV1dcUW/5xq8p1/Ug7lQ7dBN/tphmRdiAt8o7lyzBf5AGvL3xj3HJoJ/1p7KeGfstbqsq7Z575S3r2b7+zNgbh/u5/wIHjtsEI/Ou/blDMmjV73HKRJiJvacfwtpuep9rYl/PXdujU2E92Y0cnx+Ndv+iiS1J5ceGFF69j7DHzXEveGr777nsUF19y2bjtynDfttvuT+OW7bf/AcXZ55yb/r7iyquK7bffYWzdqnffT8adVnw+k+9QqZKvpxftAw8+nK6PSgMqsmP9s395flzeJfX0s7EfBOyKPyC0Mva02kdNIBkRJn/rbbYZa9kgEz/5lFNTpkTAc9LJp6RlrOMzmU0Qy6+97vrU6rHeev+z2He//VPtJcuBAu3iiy9NNVbsf8wxfx6rpQS2JYMkk/v1r3+TajxjXdnY151bFTfdfEvxs5//vPjFL3+ZrptuTnmhyUQWXDs1qXvssWdj8N/K2NOVk2ugixW1wfc/8FBazrlx/tddf0Ox2e//kJ4H29ELgHNne6759tvvHDsWz4TaW54H92Sbbbddp4fFDTfelPajK+mxxx43lvk//Mij6VooQLg/XB+1wwcceFAqOHgGl1x6edo27m0QhRJdyDh+fNcTTz6V1vN3XA/H5/spOCmUeGYEJJwvheR0mSgZLqoCT7ookuZoGalKf2xDjTjvCe/XH7faOn1mOemY7YPzzrsgLW/KR8hvjj76mOJf/uUH6Z0h/8oD87r8rmzs6/K3nFZ5q3lLe3lLVXkXwTH3hM9Vxh7oFsszLi8XqaPJ2FfFV7w7edf3uhiF1t5TTj0tvYvkVcROvI/kReyTv0uYQnqsvLN0+diyMk3GvlU8FO/mpZddnrqa854deNDBxVtL3k7rq/IGel6RF8axMbIc46mn1pqvVtdWdTzy84lcb5WxJ7/jPPLGorLproL9yl3rub4oUzh/8t18Pc+cFn7+pqU2LyfI27hurpXhnORf+bWQh/71X/9NY28KWYvGvjs09gNCK2NPsHbEEWu7tlLwUKCQScY4Q8YcUjNJ1yQKLDL6Y487Pq2juyIBMRlaBJ7cGzJnxo3RBYkMbpNNNk0ZOeupCSVQIzCntpRAmGCQdWRarKPwYx1BK5ldFGxlY193bmXIhOkqReA79+X5xfnnX5iOlR+b4JfxVa++tjAVRASQcd5VVBl77gn7cXyOM+uuu1OBw/VEgbjHnnulc+YeRAUHQTDnRWFJF66oQeaZUACzP9d93PEnFBtv/L/GjAUtYBtttHHqssX93nOvvdM9Zx2FBN9Hgcn1UVBiQAho6UrG/AqYFbqFUbBwfpgCniEGimO0E3xTMUTQTGBDlzS6vFFg8x0nnHhS6lIW+4u0S1XgSTBEmiPIrEp/vFff/OY303vOtuzPZ94f3mXyNfZ5/oWXxt7tpnwEA8k7yztEqy/v0NXXXJvWNeV3ubFvyt9yqvJW85b285ZyeUflMQE79yeWVRl7zhUzhcHKl4s00Y6xL8dXubFvilH+/Odjkzkk7+N9JBalYo51/FtO2wcdfMjY5yrqjH1dPBTvJnkm58z7yLvN+bFvOW8g32sy9nXXVnW8iVxvlbEnr6NyAiPPOXE9VNCS5+TbNUFlIfcr9uNcwuQHLGtVYUCa+OEPf9hyCBD7VVVCSjX9bOydFX+SIajQ2K/9TCYWtZysYxkFz+VXXDm2TQTRZKaxjJpKag4JrPhMhhrdRQmKSKx5sEbtIxMXUUCwnnFGeTdHCg1aSNiOwI2CL5+AjkKOQJm/OQ/OhyC0nXPLoQKDAD5fxrlGoUmQyLXEOjJ8AtO6yQWrjD3XVg42GbdJcB0FYl7TS4ZNARufuUc8kxh7wzPJC18CaNYTBPOZwDueHzB3AvMm8HwpEDE1/M06/mV9XngwKUt0HwPOJe8u207wjdmJ9YwX5JnG56gRj9p3kXYpB54EzrzDvHOk5ar0R4CYB5DAPtF6EsF3tD415SOR5+Rd/zGrHK8pv+Mz5xLGvil/K5PnrWDe0n7ewnmzjjIP+Jv8PJ47cH/zYJlzp/KDwL5qqIdIHZG38A5FuoOId8rxFeTGvilGwfBGqzjw7tDLhr95T3g3o9GDSram4SS8j1T05ed64kknp3V18VC8m2HKgVZ0jsU7VM4boMnY111b1fEmcr1Vxh6eG60MplKFc6LrfnmbOshXyUcYpx/L+Fw29uTV3Id8GVDpSIVvq2FKUdmQl1FSTz8be95p0hnwd9U2vUZjPyCUAx0yRWoYGQsU25QDPcYDsU18DugGGcFhHnySQfEdBHj59nTTolsZGTfrW2VQ1MKS+eXLyHQJsikwIsgmM2/n3HJ23HGncdcK1EBHoUmQSYHMMQO+t66wqDL2ZNxxbwMKPFrpokDMa/QJJJnAKT9GXtiXnwlQw0yXWgJajkfX1/gurp9lBKYUiDzrfF8KUApYMhQKagq0vACfSPCdXw+FHF2TuS+0Rn7ve99P2xD0xDYi7VAOPElHzEJMCzPrq9If3dMxy/EZ6L5N5SF/l419Uz6CiScdl9dDU37H37mxb8rf8uVQNvbmLe3nLZR35OcMDwCeET0gOLeoCODcCOYjffEcaK2nwrt8PJEmIm8hz4h0B9Gluup9y9/HphiFdEseQkUg7xfvJu8U66KSkXiF1n7yhaoKrxz2pfIvP9cYplIXD1W9m3Ht5M1VeUOTsa+7tqrjTeR6q4w9rf98JzPmE1/eNXtOeiYxCV47MGyHStD8+ykDyq3zVa343Ad6HnBvuKZ8HdC7isrgPJ+UZvrZ2NOTjrQPpOGqbXqNxn5AKAc6tH6UM5JywUOAQyabb8M+1B4yyQef8+CTTJLEWjbu1F6SsZPxsZ6MOF8fkBHmmT/QtYl92Dc39u2cWw6BPUFhvqxs7KOLaw7XlO+T08rYk1GXj0OlxmQF39RO0/oX95MuveXvo8AoF4i0FMbY1wg2eHaTGXyzLd15aU3jeWCg2EZjL52SB560rJffxar0R/fQchDE+0M65u+ysW/KR4Aukvn6oCm/4+/c2Dflb/lyqDL25i3t5S2Ud2UzwHljGKI3BefGMIsoE/MWQ5FOibwlT7M5Tca+KUYh76BFP4bS8C6F+YUwz3xH3hOlFexbPp+gLh6qejc5J5ZN1NjXXVvV8aDT660y9nfeeVfK88hPYhnXvfc++47brhXkM1Qw5j2BgJ5j0fshoFK6XHFDZQZDv6riTCp78Rvl40gz/WzsB2FWfI39gFAV6JQpFzxk5JFZxzJaPlgWY8TImPLgkxaPW2+9fewzAR/jIslA+cykJ4wNjfUUhvw2NdtRgNEliUw/1tP6RsbL37mxb+fcchg/SstWvozjRqHJ2NFyN7g6Uw/cq7KxJyimK26MIwUKwviX8+s0+L7yqqvH1nG/aLWLIQJkEOUWyjjvcoEYXVfzSVmY3yAPvunqmwffBL55YUSmxDH4u+p6uIdhaoAWSbapCr5F6qgLPKEq/fGeM9Fdvh2t5PHuR6+hCMSa8hGW8zfd8mM9XSNj0rum/I7AM4x9U/5Wppy3mre0n7fUGXvW8Zlza8cQiLQD6bCcZnOajH1TjIKBzH/znnk+cmPP95K++Z58ksxW1OWvdfFQvJt5V3wqSGk1j6745XePuZVyU812+THqrq2Vse/0equMPXl3eSgUlZPlfLMK8jx6MpBvlddxXzHs8Zm8h15GeaMTeSHxcF625FCOMWlhXl5Ie/SzsR8ENPYDwkSMPRBY0kWMyaYIpKjJzWteybDpvkkwTAZEZkXwSUZPUMwkVAS/EYByfAorWmdYT+HBpEysI2BlW2ooWRetZdGqkxt7PjedW06MU+K8KFTI0DlWFJqcP90yCTQJ9vluAvSoQa6Caykbe66TmjjODfPAedE9mMJ7osE394QCkK6udOfifkcNM2mR7Xm+dJElUKdAYX25QKTrMJ+pkeae8ezoXpfXCHMunDstWHymixoT43AdnAP3mGtgXdX10CoZz5cCj1nJ2aZV4SXSiokYe/IIuoCTZ9DKTwsYnwnCWI/x5j3nuPFuN+UjmD9+C5ljk4/w/sXsxk35XW7sm/K3MuW81byl/byFc6aHGnk58PwxTgTXURGgsZfJpFtj3xSjEHvySxe8L1QckpbpAp4fjxZ+Kud4H/lMV/VWc3jU5a918VC8m7yvjHXn3eU9jkqJKiPO/izj2ngXadHmGOzL+rprqzpeUL7eOqqMPZW3VA5wnfzNZGbk51GhyVwDDOHJ9wGeNXknQ674O4f8kWNR7nB/KYeYa4Tj8lzZn+vmmrgv+b4R23I+dMEnn8/XNzU2yVo09t2hsR8QJmrsaYEhw6ZGlSCUmUkjcwIyrc02+33qzkqmRKZGpkRrDxkmgRMFQ2xPgErwRyHBmE1qJfNMmYAXo8+5EsTlLUZlY990bmVuvOnmlLkygR+ZNUFxFJpAt1OWkSFT6HHP8v3LcK/Kxh7IjOMauA8EuUw+M9Hgm+CYLrjcLwrTMCnA/WZCHr6H7+NY3CfWVRWIHJfurBSc3DueRT4DOAUNs3zTbYzPtHDyDKmZ5lo5X66BdVXXQxdegnd+noZ7SbdXWupaBTsirZiIsQdafkh7GDvel/LMs0yORHqOcfBN+QjvAL8cwvtH/sH+MXN8U36XG3uoy9/KlPNWlpm3tJe3kHezf8A95DoxDrGNxl4mE4xXOc3mNBl7qItRePfprs/7Qh7AtlRuUVkZ+9OjJe9GzjbErPE5pyl/bRUPxbtJhSQVgeQD9IqK4URVeQN5CT2QyBvI9/he8ssw9nXXVmfsy9dbR6vJ86gopGKXPJCKAvI8zpd1hx9+ZKpQLO9DhW6ev+SQDtiG/I78m/tH3prPtM9Ee1X7cp9ZT3xctT7vASWt6WdjT/d7KujBWfEngZls7GUwqQoGRES6xbxFZLigooqW/vjMJG7Ru2gYKV/vZELlLgY7Kh9kcOhnY4+hj4oa/q7aptdo7EWmEINvEZkKzFtEhgOGo9xy622p11E+ESfvd10vxkGl1fVOJvSSMtYfTPrZ2NMDTmM/iYQx7xZfdpkuDL5FZCowbxEZDhjygmGg+3fV+mFjpl2vdEY/G3vmhyHtYuqdFX8SYIxQlVHvlKax1yIiIiIiIjJ99LOxHwQGytiLiIiIiIjI8KGx7w6NvYiIiIiIiPQUjX13aOxFRERERESkp2jsu0NjLyIiIiIiIj1FY98dGnsRERERERHpKRr77tDYi4iIiIiISE/R2HeHxl5ERERERER6isa+OzT2IiIiIiIi0lM09t2hsRcREREREZGeorHvDo29iIiIiIiI9BSNfXdo7EVERERERKSnaOy7Q2MvIiIiIiIiPUVj3x0aexEREREREekpGvvu0NiLiIiIiIhIT9HYd4fGXkRERERERHqKxr47NPYiIiIiIiLSUzT23aGxFxERERERkZ6ise8Ojb2IiIiIiIj0FI19d2jsRUREREREpKdo7LujY2P/3nvvFUoppZRSSiml1GTpyIufT6iJ6a233tLYK6WUUkoppZTqnTT23Uljr5RSSimllFKqp9LYdyeNvVJKKaWUUkqpnkpj35009koppZRSSimleiqNfXfS2CullFJKKaWU6qk09t1JY6+UUkoppZRSqqfS2Hcnjb1SSimllFJKqZ5KY9+dNPZKKaWUUkoppXoqjX130tgrpZRSSimllOqpNPbdSWOvlFJKKaWUUqqn0th3J429UkoppZRSSqmeSmPfnTT2SimllFJKKaV6Ko19d9LYK6WUUkoppZTqqTT23Uljr5RSSimllFKqp9LYdyeNvVJKKaWUUkqpnkpj35009koppZRSSimleiqNfXfS2CullFJKKaWU6qk09t1JY6+UUkoppZRSqqfS2HengTL2jzzySLHzzjt3DcdRSimllFJKKdUf0th3p4Ey9rfffnulUe8UjqOUUkoppZRSqj/Uz8YeH/zb3/428dxzz40u7S8NpLGfqDHvdn+leqlPP/20+Pjjj0c/KaVUf2v16tXF559/PvpJKaWUqlc/G3sM/Ze//OUEf/ejNPYDIoYPRGKC9ddfv9hjjz2KF198cXSL/tfChQvTub///vujS9oX17/eeuuNfvpCmF2O+eSTT6bPDzzwQLovw6Kzzjqr2GijjYp58+YV999/f3HeeeeNrpmYPvvss+JXv/pVcfHFF48umXqdeeaZxWWXXTb6qV7HHHNMcf75549+Gq8PP/wwnffGG29cfPe73y322muvcem/k+9ppZtuuqn46U9/mjLCbjQZ5zLo2mqrrcblWTy3Cy64oPjoo49Gt+h/1aXHJnH9pKeyrr766mLHHXcc/VQUW2+9dfHUU0+Nfhpskcf/5je/Kc4444zik08+Kf7whz8U77777uhapfpXq1atGpdf5bSKWZre3U022aS49957Rz9Nrsr5a/D444+PblEt8l+267aMm05hSC688MLiuOOOG13yhZYsWVIcdNBBxfe///1iiy22KB566KHRNfUipiJW/N73vldsvvnmxZw5c0bXrNVjjz2Wln/7299O+TXb52J7ngH777777uPWk/ddcsklKXb70Y9+VBx99NHFihUrRteqJvWzsad8i3etX439Pffco7EfBGFsyWDeeOONxGuvvVZcfvnlxde//vX0wCaqc889tzKznApNh7Enk3/wwQfT31MhzuNnP/vZ6Kep1cqVK4ttttmmWLp0aSo4Nthgg+LVV18dXTsxPf/888VXv/rVlDm105IWwQ5pbqKiu1K5UGylOiPFuu233z4dj7R03XXXFd/61reKBQsWpPWdfE9Vun/iiSdSAUzGR6VBNwVxJ+cyrCLooSIm8qynn346BV5//vOfR7foXJORHjvRdBh7AsTly5ePfpp8cR533XXX6Kep1dlnn50qIAksqHw7/vjjR9co1d+KvOXRRx9NLV45VIhXqendnWpjj3ksnysV4HUaJGPPuR5wwAEpZvn5z3+eDHwungsxEvkMpmX27Nlp24gJWmnZsmUpfyKG4J7xHNmP+AgRR37jG98obrnllmLx4sWpDCDui3tLGqEigXiQ/YknMPDhj2iAodJn7ty5KVbZc889U0yh2lM/G/tnn302xc+YejxxPwpPqLEfALUytmR0p5122uinL9SqICpr2Iz9VCnu53Qae67tgw8+SH/z/ZPRDZ+WNHoB/PCHPyxeeuml0aXrKq63GyM1kS64rYwUBepXvvKVsYI3dOihhxYnn3zy6Kf2NZ3pfqaqythS2UF6orKqrHbyrGE09lOleP+m09iTt5NvoUHqmaFU5C3tGN5246upNvZV+UuTOjX2kz2UppPjEf9ceeWVqby44oor1jH2GBWuJa+E32effVIeWyfu20477TT6aa0OOeSQ4qKLLkp/33DDDcUuu+yS/kbkaRh3WvERcQeVKiHW04uWOJTro9KAiuzQ/Pnz03lGPKfq1c/GfhBEZZPGfgDUytjSah81gWREmHxaNakhRGTiGDkyJcwcXYQj4OIzmU0Qy2+99dbUbfY73/lOcfDBB6fayxAF2lVXXZVqrNj/xBNPHJcm2JYMkkzud7/7XarxDJWNfd25ldWusb/jjjuKbbfdNv3NsVhHJr3lllum6znyyCPHVSyQyDlfulNR80urbah8Pwny417BM888k7ZrOgaFzOGHH54y++22225cqzv3ZO+99073i25ftHaFMLO0gNE1nHvEvc4Lhrp7XaUonHiXTz311HTsXOXr5V7m13vppZem7ahgYF+eGenk2muvHQt02GbfffdN10sPkzVr1owzRxR6nCcBD+dNIZybtFZGiu+kRv2+++4bXbJW3PvYv7wvteoEP3wPXe6iFr9VuqeVnWunJp5riONGOrrttttSOiIdct/pUUGa5blz/2mlDJXP5eGHHx47F5533suGTPiwww5L6YP36pprrhldM9iqCjzposi9pIIm7isBEvePwA1RI77DDjuk+8z7wmfUKj1ynLp8hPf9hBNOSD1euL/kX3lgXpfflZ9jJ+9cq8C7bOw55+g+yzURNHK+XA/fUe6BxH1gOfkClVqRJ5AfkXa5nxwTM5/frzxQbZXWOQYtY6RlvoNzoPUpgnH+5fwj/6f3Be9BiGfFtfHsuP48L0Stnq1SvVaTsa+Kr/J3F82aNSsNdfv1r3+dYjO6Yoexb1WekxexD+91CFNI+ckcFa3UKn8JNZVnlNvEHLyLlNcxZKacj3Acel6RF4Yi7orGgbpYpXw83vmJXG+Vsacc5TzymK5suqvEfuUedVxflCmcP+VILp45LfwIL5SXE+SLXDfXSsxDvJpfC3EeDRPR4q/qpbHvThr7AVErY0tgd+yxx6a/KXgoUMgkeXjoqKOOSjWTmBqeJRn9KaecktZhlgiIydAiEObekDkzbowuSGRwjJMkI0cEdQR8BOYkEgJhTAki02IdhR/rCOrI7KJgKxv7unMrqxtjz/0h3ZIRE1Ryfojrx2AyFvrtt99O4/MpXDh3VL6fZNhsQ4s9x6ZAbucYGDbGfXH93Ktdd901rUMYCgpNaqQxrXT/CgN60kknpcKEAplnQdqNMfZN97pKPFOeLfeM+xV/h8rXyzr+5R5SGRHb0u2NwpPzomDnPOjKhigYMeCYikWLFqUCLzdHbIdxYD+6w51++umpy1qobKRyMcaONMB3kHGVle/Ls+Zect+5Bpbz3HiGVemeZ4NBZ3ueI8+E58o1Rzrab7/90rMh7YexwYRznQRJfF+0HOTnQt5JmuDZcF6kFe4zBT9piDRADwLuB3MGYECplBh0VQWeXD/3krQT95WKSVo0CKy5vwyvoBKFbdmfz6TxVumxKR+h8ohnxzOmLON+33zzzWldU36XP8dO37mJGnvyC8pa7g9GgfeJNIl4rzbddNPUxZPz3X///dM5I4JK7g0BNtdK+uIYVEZxnVSqoLq0zjEIQI844ogUCJAOSddhwLlW0i7Pi+/HMLAt4p4wNIxteA84V9J9vBN1z1apXqsdY1+Or/J3F6PIu0r6pkwgn+d4kT/Ulef8Sx4VojyI96qV6ox9O+UZeSbnTFlMHsH5oXI+Qr7XZOzrrq3qeBO53ipjT/lJ5QRGnnPieqigJX/qRFROcr9iP84lTH6IZa0qDEgTG264YYotqsR+xEyqPfWzsadsphs+UOnVj9LYD4jKxpZMjMyEwIl1iILn+uuvT3+jCKLJTEM8XAI3TATKuyRjwkiseU0qRugXv/hFKiBYjznKW5UpNBj/zXaYNgo+/g5RyBEoI86D88HYt3NuubhGtucelGF5nbHPC2oCVAJVzpHryE0lokU/WkzL9xNxHnlX/HaOES2RiIyAYJZ7yflxvXnmwH2mcEQUkPnEU1wbFROo6V5XCQNAV3zEftSi5y1mVddb7vrMs+Gc81Y6vpcAH1EYMiYuV26OGI8YJgXxzDl+1O7n25bFPaMlkXHa7EMrfAQWKN+X6+LdiFpzClyMRnxPuSs+FQwsCxEwYLAx2pGO8hp+CmoCqxDnxveRR6L8XPg7KpMQ2xKgYHR4j5kvIw8IGOcfXQIHWeXAk7SECef9zANMypcQASL3Kxf7ROtJOT025SOR5+Rd/zGrHI/nUJffofw5dvrOcf3kNeX8CvPb1GKfa7fddkuVAQhTH/k9Iu1wPO4nATR5C3/n4jxI+6G6tM4xOGeC7xDvGb2eEGaFz9w7xP2PXjS8W9z7XBw38uamZ6tULxV5C/l4/r5GvFNVPubvLo0spOdc5C9h7OvKc/JA3uNo9KDyMY+zqlSVv0T53k55lpedERdRDlXlI03Gvu7aqo43keutMvYoKgypVOGc6LrficjLyHPz+UD4XDb2xHXch7LwRFT45nlsrqhsyMsoVa9+Nva806Qz4O9+lMZ+QFQ2tmSK1DBGwIUoePJAmvFAbFMW3UjDgOQGh2fLdxAs5qKbFt3KyLhZ3yqDohaWzC8XmS5BNgVGBNlk5u2cWy6unwKXBJtDgcIx2zX2tB6xjICUTDruY0DhFiasfD9R2dh3egwyeb4/zAH3lRY6ngEFG+ccIlDmnmIcKJTZLsxk070ui2Xc29zI0903b9msut6ykeI+8zm/XtIjBTOqMia5OaIQpeszz4jWzh/84AfpeHwPyrdtJY5BiyUGmHtP3oTyfbm/tGZi0s4555x03WFGUNnYY7RIX/l1cS/jmXCOeTqihZ4u9bnyIC8/Fyp+cvNYFmmY7SkkeM4EKXlQNqgqB57cQ0xhtNBW3VeGsmCWc9HdncpDVE6PTfkIJp50VqWm/A7lz7HTd47rpwKonGdxnE6MPb1Loss950s+EGmU62QZFRcE0NznssrGvi6tVx2DYDoqJ8k3eddJ0wTQZSNPZTM9MOiVw3Vx3KiIaHq2SvVSkbeQZ+Tva1QOV5WP+btLBVwejyFaycPY15XnlE3k/7yDtPaTb0YldCtV5S9R4d5peRbXTt5clQc0Gfu6a6s63kSut8rYUwHJd9Kbj/iSYUs8k/JcPHViaBYVpvn3UwaUW+erWvG5D/Q84N7k8UWIeJPK4LryX62rfjb29NYk7YPGfhI00419bmxp+SxnJOWChyCLTDYX+1B7GEY4NzhkkiTWsnEn0CRjJ+NjPRlxlcgI88wf5ZOG5Ma+nXPLxfVXBa1RwLRr7AmAWRbGnkyZFuScqHlu19h3coyysUdsT5okwCXTiG5+3EtaAKIrK8F5FJZN97osxnizjjTEfQQKU1rto4tuu8aefcvXG70smow9z2ezzTZLmQzPm+Ny/CZjT8BSNmCIoSBxH6r25Z7Q2okZoVdBtBpUGfsYTpHDO9Gtsafl4s4770x/l0U64JnTwyMCSM5rWIx9BJ68b3krMKq6r3QPLQdBpMkwwuX02JSPAF0kq9SU36H8OXb6znH95fcJNXXFL78/VBLS2h35L0MAyumUdN2JsW+V1puMPeK7uO8E8uQfsY53mooG7nm8Z+SVYeybnq1SvVTkLXl+lKvJ2FN+U2mdKzf25B2tynMU5pnvKOcBVWqVv6BOy7No8Jiosa+7tlb5UqfXW2Xs6S1E2Z7Hwlz3gQceOPqpXuRNNC5EeRIiv43eD6G851KIPJChX+WyDVHZi98oH0c1q5+NPY1ExGyY+qpGyH6Qxn5A1MrY5ioXPGTkkVmHMEcsC/NIxpQbHCZ7ufvuu0c/rTUetL5Ed0smPWEceYjCkN+mZjsKMLokRVCHaKGJ1tzc2Ldzbrm6MfYxbgpRCNMiyvnStZYW3TC2iH1CVQU5tfm5se/0GLmx59oJ8qNQ4l/OPQoPCpz8N3IZFxyFZdO9LotCl674UTEEtBTzHTHTa9X1Ri+NKPgwaHzOW+ro5hfX32TsOY8wTYgWT47XZOw5RyolygaKQpNjonxfMt8IqFBcR3SnL6d77k0cJxSFdVUg1Imxp2dEuXCntZN7yn3k2GHqEfMwDIuxL6enXFX3lUkduV+5aCWPHjDl9NiUj7Ccv/PhPaSBmPSuKb/Ln2On71yr628y9kzOl4s8IYb2EFCUW70jnbYKoGldz419XVpvMvaM+c+78PJekp+Sd1Gu5tfFfSJ/CWPf9GyV6qW6Nfak73JaJm+IcqiuPEd8Ly3dfE8+EWsr1eWv7ZRn+XtMRR0V/ZjRqjyAPCs31WyXH6Pu2lrlS51eb5WxJ+8uD4UiryyXzVWi7KUnQ96LMcR9xbCHyMvo+RVxJiJPJR6uGjqKyOvyxgTVvvrZ2A+CNPYDookYe4R5oYsYk01hogi8CFZDZNhMPkIwTAZEZoVRJaMnEdBVm+A3zCrHp7AiPbCewoMuzwhzx7aYGNZFa1m00uTGHjWdW65ujD1jvjECBPQUAmGyWE+tG+fBes6B7qJRUFfdT66bLm38i8ns9Bi5sad2m5ZFCiJ6EtB9jEAhjDZplSCfY2I0KFjoMoaa7nUuzhNTXFWA0cU3fle86no5T8ausTxq43nm3GOuhQyEsWlhfpqMPa2ekX44H2bG5n5E4Zhvm4vz4L5SYDMnAfeaShXSRNV4aO4H95Z7ybFJ1xiQ6KpYTvf8y3VSqYJZZH8MHtcc6SgP+Dox9lQscf95hmSqfDcTtvFcyE+5BloZeA9YR/oqVwQMoiZi7MkjeE6kYyqRaAHjc1QkVaXHpnyE9EgewLFJszz3mN24Kb/Ln2Mn7xyaqLHneumiGmmF4SZR2UnZxfbkh+QZN954YwpAMdatAmjSKfeIdxXVpfUmY0+XV+a44D5yTozl5b1EYQ7oDst68hWeb1QENz1bpXqpbo09aZ4yh/cA44vp5Hhh7OvK8xAt/LzvEWeTD5SNa6guf22nPCMPIrbHnDN5XlRKVOUB7M8yro33lRZtjhHGvu7aWuVLqHy9daoy9uRBVA5wnfxNbEB+HpWf5E8MZSqLZ01ezpAr/s4hL+VY5E3cX/Iq5rzhuDHkiuvmmrgv+b4R23I+dMEnTsnXV7Xsq3Wlse9OGvsB0USNPS2BZNjUqBKEMjNpZE6ITItAje6sZEpkamRKtAyRYRIUUzCEMEGYEAoJul1SK5mnCRIORp9zxcDlrUtlY990brm6MfYExwSfFLqY0rzVl4w3zpdrZltaoFHV/eT7KFy4dgo51MkxKPw5JwwK4r2ii2rcLwL1EMelex+1yhyf7twY4di37l7nIrAgAOHcy6KWnf15FlXXi2hd5hxi3DH3j9YJ0gzPjtaBeKZNxp59MRl04eWZYMppUYxgKt+2LNIZLdmRNjE00bKKyvuSFgguuD7uW96iUE73iC7OnBMFOkETaQ51a+wRZocADYNPl77czLAPwxMIhngfeL9a/TrEIGkixh7xnHgO3CuCz/LMs+X02JSP0MrPL2PwzhKcsX+8n035Xfk5tvvOoYkae2aX5nq4FnoIMIwmxPkygRfnyzmQBslXUasAmryRiiTSXahVWm8y9txXervQa4lnQJdXev6EGK9K2cB5c+20yOfDUJqerVK9EsarKj8KNRl7RFonj+H9wFCS1sPYN5XniN5seTdytiFmrVJT/tpUnlE+xs/d8Z5GXFSVB5Dv8N5TRpHv8b3kl2Hs666tztiXr7dOVcYeEUNRsUv+TkUB+SPni6hcpDGhLCp0uQdVkA4Q+SYxAvePvCrv+UljRtW+3GdEHli1fhh64k2H+tnY44NpzIN+Lb809mpo1co4KKVUP6qqYkwpNTPEu58PDWISt+hdNIwqX+9kikpIDHZUPqjBUT8bewx9VNTwdz9KY6+GVhp7pdQgSWOv1MwTw8Vmz56deh3lPQppGW/Vi3GQ1ep6J1P0xDPWH0z1s7Gnt5zGfhIVxrxbfNlnhjT2SqlBksZeqZknhl5hGGJI4bBrpl2v6kz9bOydFX+SxRihKqPeKTHWSCmllFJKKaVU79XPxn4QNFDGXimllFJKKaXU8Elj35009koppZRSSimleiqNfXfS2CullFJKKaWU6qk09t1JY6+UUkoppZRSqqfS2Hcnjb1SSimllFJKqZ5KY9+dNPZKKaWUUkoppXoqjX130tgrpZRSSimllOqpNPbdSWOvlFJKKaWUUqqn0th3J429UkoppZRSSqmeSmPfnTT2SimllFJKKaV6Ko19d9LYK6WUUkoppZTqqTT23Uljr5RSSimllFKqp9LYdyeNvVJKKaWUUkqpnkpj35009koppZRSSimleiqNfXfS2CullFJKKaWU6qk09t1JY6+UUkoppZRSqqfS2Hcnjb1SSimllFJKqZ5KY9+dNPZKKaWUUkoppXoqjX130tgrpZRSSimllOqpNPbdqWNjv3TpsuL9Dz4UERERERERmRQOPu+ZRNU6aWbhwkUaexEREREREekdGvvu0NiLiIiIiIhIT9HYd4fGXkRERERERHqKxr47NPYiIiIiIiLSUzT23aGxFxERERERGTDee3914t33PhgKDjr3qUTVumEknl/Vs50IGnsREREREZEBIgz9ipXvFstXrBoK9j/r8UTVumGEZxcGv+oZd4rGXkREREREZEDADK569/1kDpcuW1G8/c6yYsnbSweefU9/OFG1btjgmfHseIY8S55p1bPuBI29iIiIiIjIABAt9RjCd5YuL1ateq/47LPPCjVY4pnx7HiGPMvJaLnX2IuIiIiIiPQ5GD9YOWIIae2l5VdTP7ji2fEMeZY803i+Vc++HTT2IiIiIiIifUyYPlp2GZtNS+/iN5eMWkQ1qOIZ8izz8fYTNfcaexERERERkT4lN/Uxtp4x2m8sfnPUHqpBFc+QZ5mPtZ+oudfYi4iIiIiI9Cm5qafL9rLlK4u3lrxTLFy0eNQeqkEVz5BnyTPl2ebmviot1KGxFxERERER6VNyYx/d8N98a0nx2uuLRu2hGlTxDHmW0R1fYy8iIiIiIjJkYPDC2NOiG93wGZu94NXXR+2hGlTxDHmW0R2fZxzGvlNzr7EXERERERHpQ8LUR2s9XbaZSX3RG28W8195ddQeqkEVz5BnyTPl2XbTaq+xFxERERER6UMqjf3o+PqX570yag/VoIpnyLPkmWrsRUREREREhpCysec3z99a8nbx+sI3irkvzx+1h2pQxTPkWfJMebYaexERERERkSGjlbFn0rWX5s4btYdqUMUz5FnOOGM/5577ij/9afuu4ThVxxcREREREekXwtgzqdo6xv6ll0ftoRpU8QzLxj6fQK8qTbRioIz99TfcWGnUO4XjVB1fRERERESkX9DYD7dmvLGfqDHvdn8REREREZHpIox9ZVd8jf3Aq8rYz4iu+DPZ2DN84K/+6q/G+Md//G6x8867FE8+9XTl9v0IY0g4d37OoWp9Hfn1/93f/V2x2e//UFx9zbUp0cc2b761JK3fZZddx+0b8MKw77bbble5XkQmjz9svsXYOwu//e3vijPPOjvN+Fq1fT9y2GFHFGeceVblul6y+RZbFg8+9HDlun5l1qzZxa9//Zuxz+1eA+mF9POX516oXD8slMvHf/3XDYr77n8w/T3rrrtTeZ9vL5NLxA9VtIpZmtLwf/7nRsUdd8yqXNct5fw1iDTTikF8n/gpsLPOPqc48sij1lnH73/vs+9+xfrr/3Ox2Wa/L2bffc8621Tx7LPPpXfqn/5p/WLTTTcrbrvtjnHr773vgbT8W3//9ylmZPt8PdvzDNh/p512HrceU3buuecX//Efvy022ODfikMPPbx4Y/Fb4/bvFI39cGsyjf2sWXdp7AcBjC0ZDD+JAC+8OLe44IKLiq997WvFiyMJomqfdjjt9DMqM8upoFtjz/W/suC1Yt78BWOZ7tFHHzO2TV4wv/rawnH7ww033pTWaexFph6CnnPOOW8sz3ro4UdS4HX44UdWbt8O8Y5zvKr1k02/GnuCSn7ztmpdJ0zn/Swb+3avoVsjQtnx4w03rFzXT9QZe8zLXbPnjG3Lu3XzLbeOfZbuiXfhnnvvT3FGTt6AkNOUhqfa2GMey+eKKajaPhgkY8+57rX3PsXf/u3/W2z4k58kA5+v57lsseUfi6OOOjqZ/1tuvS1t+9zzL47brgw/K/YP//Cd4rLLr0j3jOfIfo8/8WRaz/tGI9A1116X4k3KAPKQuLekESoSyFvYnzgaA89PlbH+9DPOTJU+Tz/9bHqvaWzaddfdxr5/Imjsh1uTaeznz39FYz8IkIH8j29/e53lZHTHn3DiOstbFURlBsnYl6+fn4Yg8330scfT5yiYN9lk0+LSyy4fty1sv/0OaZ3GXmTqIfC86uprxi2jVYN3lHc3Xw7t5Fka+8mll8a+XTT2626rsZ984l1oJ521G19NtbEv56/t0On71KmpaKKT4739zrLioosuSeXFhRdevI6xx8xzLXlr+O6771FcfMll47Yrw33bbrs/jVu23/4HFGefc276+4orr0rxYqzDYGHcaVDi8/4HHJgqVfL19KJ94MGH0/VRaUBFdqx/9i/Pp/PkemJZp2jsh1uTaeztij8gtDL2tNpHTSAZESZ/6222GeuOTiZ+8imnpkyJQOGkk09Jy1jHZzKbIJZfe931qdvseuv9z2Lf/fZPtZcsBxLZxRdfWvzyl79K+x9zzJ/HaimBbckgyeQI4qjxjHXlwKXu3Mq0un4qJaJiIwpmCgAMfL4dBQA1sqzT2ItMPVWBJ4UV7ygtI7zr/E2ARF7Bu8k2jzz6WLHNttum9/2PW22dPrM8etwE5513QVrelI+Q39Cz51/+5Qcp3yL/ygPzuvyubOzr8recuDYCRIYNceyDDzl0XKUmLT0HHHhQCgI5r0suHV8Zefece9M95Lt22233cT2zuM7c9HFvOJ8f/fjHxbHHHjcWQD78yKOppev22+9M67lHtCYRKLS6n8tXrCpOOfW09B3cFypJ436xH0Fz5P/0vlj8ZnUXU4JtWtu4vh133CkFzZxDrM+vgeNyLzFCXC/BeVQ2xL3kPOilRbo48KCDUwAUxyIg4rnQLZYWvPsfeCgt5/nl18j9qNseeEaUa5wf10n6JMCK9UGc13XX35CeMefFMbkfpEGOzfVy7/P9Wj2rOmPPPlv+cauxbYIwH/SM4Vr5Gzhf1j/11DPpc7vXNJNpMvZV8VX+jOCmm28pfvbznxe/+OUvU2xGV+ww9gTrvFc8d95DngfPnneLfXjGcRxMIT0U31m6fGxZmSZj/9jjT6RzpWV5jz32bPt94h1hH9II18dxmtJXq2urOh75+USut8rYkydyHnm+WjbdVbBfuWs91xd5IOfPO5yv55nTws/fNCbl5QT5F9fNtTLhGfFqfi28t3/913+T7lMs6xS+g7TCvdfYD5809hr7MQgMjjhibddWCh4KFDJJEgjLDjn0sFQzSdckCiwy+mOPOz6tI4AjICZDi0CYe0PmzLgxuiCRwWGSIwggqCMoITDHLBMIE5yyjsTIOgo/1hEskdlFwVYOXOrOrUyr6+d8CBr5OwpmakfZNs+4CeYJMilMNPYiU09V4EkwxDtKkBkBJhWTvLO8v+QF3/zmN5NZYlv25zP5CXkQ+Rr7PP/CS2N5UlM+gkncY8+9Uv7zzDN/SWaV+TlY15TfkTeGsW/K33Li2sibqfjkWqisiEpICmvOgx5TdAtlrhQqHujiyfonnnwqBbocm33PP//ClLdHsJgbClpuN9po49Ttk2vYc6+903WwjkCTgPKggw9JwSzHp5cTwXWr+0m3VoJjnhGBO9dMV1XWcT6cB8+L78IwcGzWldl7n31TmUQ+THmx8cb/Kx0r1ufXwPGpgOD7uB8nnHhS6srKuriXPGOOxTYY6T//+di0nnKMCgHuEUOwGI/OveMZEWTzmRZ7jsN9r9ue45F2SC9UvPBdGGEqf1iXE+fFtqQ9rjEqPKikmfvy/GSeuN/Rolj3rNox9gR4fC/XT9ol+GN9k/Fq95pmMu0Y+3J8lT8j0iaNB+RdPHvSF8eL/IH0ijnkveLZE4tSycY6/uX58DeQL7R6r4I6Y09aomKJ8eakcdIHaZ500fQ+kWewHqPOccj3mtJX3bVVHW8i11tl7HmfqZyIiiquh0pU8qd8uyaojON+xX6cS5j8gGWtKgxIEz/84Q9T3lK1nv3IU6vWtYvGfrilsZ+gMe92/15SNrY88KjlZB3LKHguv+LKsW0iiCYzjWUEdwR6BE98zrvik3j+/d9/Pa4mlcDoJz/9aSogWE+ARJfKWE+hwcQhbEdwRsHH37GeQi5az/PApZ1zy2ll7DlXMnb+joKZYxKccm0s57wp1DhvCkKNvcjUUw48eT8x4RgU8q8IMDHbsQ0BYh5AAvtE60m849H61JSPRJ6Td/3H3HK8pvyOz5xLGPum/C0nri03CZhpTB77c/3Mk5IHgkywFF1B+d6oBADOlaAWA8nn3FBgFKMMAI7L3Ct8B0E130mgEOuZMIqeBPxdvp/cM+5d3grPNWLg+Ruzwv6cD5+5/3feedfYtkE8F55FLIteA/E5vwbGKefzorAf+9PqF/cyTATEveT+ka9HJUBA74joAcG9ybviN22/ww47jvUeAb6XVsv4HMR5YSZiGQE86T4+c58oo2O4WN2zystH1lUZ+9iP78i74jcZr3avaSYT7wLPi1gjiHinHF9B/oxoZCGvyteTv4Sxx/BGqzjwTKns42/yQNJBPHsq/fI4qwrSAO9Afq4nnnRyWkfFWMQ/gDmg4pAKxKb3iTyDylTSUKxvSl9111Z1vIlcb5WxB/JEjk+lCudE1/3yNnXwjmK6iRljGZ/Lxp48gvuQLwMqbsnXWg2NicqGvIyaCJynxn54pbGfocaeTCsycDJFahgjQAMKnjyQZjwQ28TngK6OEWjkxp4Miu8g2Mi3p5sW3cpIcKxvlUFRC0vmly8j0yVQpMDIA5d2zi2nlbEnE+e6+TsKZr4zalAJomkd4bgUaBTMGnuRqaccePJuYgqjZbTK/NItGiMZn4Eu2lQe8nfZiDblI5h4WtXL66Epv+Pv3Ng35W/58qpro9WWZZhePhMMc3yCf4JugtMIxjGeeYVDmTAUGF+OSXd37gNw7SyjMoOgupxvEhyHySvfT8aI8jmOBexP4M16zp2/OT/y3ty452AUuJ48ICFwb2Xs2Y4WZMwrz+t73/t+Og/Or+pexnmTlgi2ozwMSHdRMVI29k3bcw9YRosi59RqNuuq86KFnmET+XbtPqupNPbtXtNMJtIUeQY9G4LoJVOOryB/RvQczOMxoEEhjD3PnzyEikDed9JBVAKR/skHeEdo7Sc9Rlf2VrAvFUn5uUaFHDEOFRSRzoB8iuM3vU9VeUZT+qq7tqrjTeR6q4w9BojvZMZ83h8mmOSZxCR47UBvTirc8u+nDCi3zle14nMfeKe4N1Xmi/eMyuC6vLxdOL7GfnilsZ+hxp6MOjJwWjjKD7tc8GBuyWTzbdiH2kMKej7nxp7ERGZdNu7UXpKxk/Gxnow4Xx+QEeaZP9C1iX3YNw9c2jm3nFbGnlau6EIWhRMFFi8ELW8ci+EG0TWXwEtjLzL15IEnhpD8JV9fFWDSPbQcBOW9bOIdDyPalI8AFXz5+qApv+Nv8rMw9k35W7686towbyzjXlDhSHdoWonDOJAPh7GntevGm24e27dM2SwyLIAW7xzywKqgusnYs335WLTkx/4cl/tOIM/Y2bwlOKBSBdOaL6sz9jxzuupTUcDz43w4L86v6l5GJUkYe4Lr8jkTILFtlbGv2x64r5wvzxuTUlUmTdTYt3pWU2nsoZ1rmsnk8UPV+iZjT+VjeXhDbuy577ToR6UKzy/ML8Qz5Dva6bbNvuXzCcgvY6hJDnle0/s0EWNfd21Vx4NOr7fK2NNbiIrGPBbmuhkGlG/XCvIGKhEj/wuIKaP3Q5D3dArIAxn6VS7bgMpe/Eb5OBOFa9TYD6809jPU2FdljjnlgoeMPDLrWEbrFMtIQHwmYwpjD0z2cuutt499JgBl7GN0t2TSE8YkxnoKQ36bmu0owAjcSIyxnta3aO3JA5d2zi2n6vrZl5YXgkw+lwtmanEpMCh8o9uhxl5keqgLPKEqwDzu+BPG/YQl0EoerakUeuwTgVhTPsJy/s6NKV0jY9K7pvyOwDOMfVP+lhPXlo/1xADQis13RFfzMPXAXCVh7LkH5YCQFvK47txQUEFQ7uUQgWaTsS/fz6ou9AQWBBn8zeRguVmkx0S5ZR649xwnz8vrjD2mgEA/1tETgv1zY59/L3k+rXwEzwyRoBI3zhHYJ/6mBTY39nXb82y4N3l6oYwsGwqoSr91xp6/655VJ8aeHhO5sWeumfwcuS9xzzq5pplMt8aevCsfPgPkDWHsMZD5b94zz0du7PleKlz4nvKEi1XU5a/M21AeFhDprOl9qsoz6tIXn+uurZWx7/R6q4w9eXd5KBSVpeV3sAryOHoy0LuovI77imGPz+T59CTKK8N4/4iH8/cqhzycIUx5edENGvvhlsZeY19JVcGDaaeLGJMjESxhavOaVzJsxqgTDJOIyKwIesjoCYpp6Sb4jcCH41NYMbkT6yk8mACIdSREtiUgZV20lkULXDlwaTq3HK6fHgsE8rQAMmM05xETB0K5YOa4fKbLV7wYGnuR6WEixp48AqNInoHJpAWMz2E0MSmMpeS40TrUlI9QucfEmRwbU09+F7MbN+V3ubFvyt9y4tr4Xkwz30sAGmadYQDk57Qucd7kw3SVjfVUCJDfUcFAYc96JvmLngG5oaA84zN5JL0Crrzq6hSUkuc1Gfuq+0mejonknMlrGXsa94DK0s02+31ax3kxlpfhE3HsHL6HYxGocF70xmhl7OkNEeUKgTa/hsD9I2iOe8lzZWwuZoLJvsJEsZ48nnTAvSYNcE5xbI7JveVf7l/T9tw7zptnTJohZsAIsy4nzitPv03Gvu5ZdWLs+Q7On+fDZ9Iiz5l0zLtCiyPHCuPV7jXNZLo19rwT9BTiGWB8MZ0cL4w995xfTSC98V5jFOkCnh+PFv409nwkf+AzlWFl4xrU5a/Ec7zXtDATM5E+qLDkHW96n6ryjKb0VXdtrYw9lK+3jipjTx5E5QDXyd804JCfR+UZ+RM9NvN9gGdNXs6QK/7O4V3kWJQ73F/KIeY+4bg8V/bnurkm7ku+b7y7nA9d8Mlf8vVRuTIROC+N/fBKYz9BY97t/r1kosaeFiEybGpUCUKZmTQyJyDTIlCjOyuZEgmITImWBTJMgmIKhtiehEYwSiFBV0tqJfNMmcABo8+5EqjlrRPlwKXp3HK4fvYFMlwKIq6V84ltyDhZnxfMBGycb3zW2ItMDxMx9kDLD+8txpZ3tTzJFy3XtLTEOPimfISCkgpA8iuCM/ansGRdU36XG3uoy99y4tow5FwLAT/GKow5YAjofk4QzPmTT8WQIWC8KEE994FuoHkrem4ouAbmDuEaOC9MH3kt65qMPZTvJ+dI6yNlAveU1r/Is7mvGEJawNmHLq/MFRDHysFEULHBtWMsaZFvZez5TowqXfu5X0xeSKs0aSPuJeY2fp6LXhz5vSSAjufCfeC+xzOmjOCaef4Yk6btCa4YY8v2VKbwbKoC8okY+7pn1Ymxx1BwbqQLPnNcngtpiXTJe0d6DuPV7jXNZKrih5wmYw8MnyGP4f3AUJKWw9iT5uiuz3tD2mNbKrCoXIv9eUfybuRsQ8wan3Oa8leGfPD9xEtsSwzF8qb3qSrPaEpfdddWZ+zL11tHlbEHKuyo2CVtU1HA+8X5so6f4yyPlQcqdLkHVZAO2IZ3jNiY+0c5lPe+orKzal/uM+uJj6vWR4+sicA1aeyHVxr7GWjsRURkMGhVaSEi0goqFmnpj89UxkTvomGkfL2TCZWQGOyofBh0NPbDLY29xl5ERPoUjb2ItAtDTm659bbUQybviULLeKtejINMq+udTOj5Mkyx/nQY++OOO6748pe/nPj6179ebLLJJsX5559frFy5cnSLqdcee+yRzgO99dZb6VyeeeaZ9HmYNeONfbdo7EVEZKrQ2ItIuzAEh+EZdP+uWj9szLTrnQymy9hvvPHGyUg//fTTxaxZs4ptt922+M1vfpNMdie69957kyn/4IMPRpe0J439DDP2jBGqMuqdEmONRERERERE+pXpMvYY+Vwff/xxsf322xe777776JL2pLHvTDPW2IuIiIiIiMwUemXs0ZNPPpkMNuYw9P777xennnpq8aMf/Shx1llnFR999FFa97Of/SxtH5xyyilp+eeff17ccccdxdZbb12st956xaabblrccMMNaXmoytjffffdxVFHHVV897vfTT0K5syZk9aH6s4Fffjhh8V5552Xeh5ssMEGxYEHHjjuWvpBGnsREREREZEhp5fGHuOMwcaUozVr1hTbbbddsfnmmxePPfZYcf/99xe/+MUvihNOOCGtx5Bff/31aZ/58+cXK1asSMtvu+22ZOj5d+7cucXs2bOL73znO8Vdd92V1qMqY4+hv/baa1MFAwb/K1/5SrF48eK0TdO5oJNOOimZ+oceeii1/u+5557FT3/60+Ldd98d3aL30tiLiIiIiIgMOb009mj99dcvrrzyyvQ3LeZf/epXx8w1wjRjuJctW5Y+V3XFx1wuWLBg9NNaHXPMMcVhhx02+qna2FNJEFq9enVaRis+audc6EFw+eWXp78RFQ0HHXRQMW/evNElvZfGXkREREREZMjptbGn1fyqq65Kf9Mazna0lgcYRgz3E088kbZpNcaeSfkOPvjg1KX+hz/8YfGtb30rmflQO2Psv/e97xXXXXdd+rudc6GV/1e/+lXqGRBmv9+ksRcRERERERlyemns6bKOUb7zzjvT5/322y99ruKee+5J21QZ+4cffjj9jB7j6jGamGxM90SMPV3zUTvnwnh7KiX4+T6W77DDDqlbfz9JYy8iIiIiIjLk9NLYP/roo8kQv/baa+nzkUceWey8887JMJaJcetVxn6fffYpTjzxxNFPa8Xnbox9O+eSa8mSJWlyPbrq2xVfYy8iIiIiIjJt9MrYM6P8lltuWeyyyy6jS4ri5ptvLn7wgx8Uq1atGl2yVrmRvu+++9Yx9hybiexCdJvfZpttujL2TefCMbbaaquRe/RS+oz4CT+Om0/a12tp7EVERERERIac6TL2/AQdfu+5555LxhdTz/j0fHI6zDrbYcofeeSRZJovuuiiZLDfe++9tA3HwDzT7R4fiS677LLiG9/4RpoM74EHHki/jU/LeV6Z0KmxbzoXfkpvxx13TLPms/7FF18szjjjjHQeixYtSsfoB2nsRUREREREhpzpMvYYacD4Miad33+Pn6vLxTK60TMBHjPmM9adn7YLYaiZ2I5155xzTlpGS/m5556bZqnfcMMNkwG/8cYbU1f6Tz/9NG3TqbFHTeeycuXK9Fv6/MQd63fbbbfi2WefHV3bH9LYi4iIiIiIDDnTYexV76SxFxERERERGXI09sMtjb2IiIiIiMiQo7EfbmnsRUREREREhhyN/XBLYy8iIiIiIjLkaOyHWxp7ERERERGRIUdjP9zS2IuIiIiIiAw5GvvhlsZeRERERERkyNHYD7c09iIiIiIiIkOOxn64pbEXEREREREZcjT2w62eGvv33ntv9DSUUkoppZRSSk2VPv/88+Kzzz4rPv300+KTTz4pPvzww+Ldd99NRm3hwoWjW6lBFc+QZ8kz5dnyjHnWPHOefSd66623NPZKKaWUUkop1W/S2A+3NPZKKaWUUkopNeTS2A+3NPZKKaWUUkopNeTS2A+3NPZKKaWUUkopNeTS2A+3NPZKKaWUUkopNeTS2A+3NPZKKaWUUkopNeTS2A+3NPZKKaWUUkopNeTS2A+3NPZKKaWUUkopNeTS2A+3NPZKKaWUUkopNeTS2A+3NPZKKaWUUkopNeTS2A+3NPZKKaWUUkopNeTS2A+3NPZKKaWUUkopNeTS2A+3NPZKqTF99NFHKQNQSimllFLDJY39cEtjPwP1yCOPFF/+8pfHWH/99Ys99tijePHFF0e36H+RcDn3999/f3RJd9pkk02Ke++9d/RTZ7rrrruKrbfeuvjOd75TbLXVVsXs2bNH1/S/MPK77rprev4rVqwoTj/99OKxxx4bXdud7r///uJ3v/vd6KfO9cQTTxQ77rhj8d3vfrfYcsst031uV2eeeWZx2WWXjX5qTzfddFPx05/+NGVc7YpMj2tcuXLl6BKllFJKqf6Uxn64pbGfgcLYf/vb3y7eeOONxGuvvVZcfvnlxde//vX0wCaqc889tzjuuONGP02t+sXY33HHHcWPfvSj4qGHHkr38sEHH0yfb7/99tEt6sWz+NnPfjb6afr18MMPJxM8f/784re//W3xhz/8IWUEk6FujD3ntd566yWzPW/evOLuu+8ufvjDHxY33HDD6Bb1eu6559J+7YpKhKOPPjplVHvttVeq5GhH3Cuetb0clFJKKdXv0tgPtzT2M1CYSUxTWQcddFBx2mmnjX76QiSGdjQTjf3OO+9cXHXVVaOf1gozikluR90Y+05f0CrRYv/xxx+nv9esWTOpBnWixp5z+PWvf13ceOONo0vWisoT0q35hlJKKaVU59LYD7c09jNQrYw9rfa0VqJddtklmfztt9++2HPPPdMyTOBZZ52VWqRpPaWll2WIz9G1H2L5rbfeWmy88capm/rBBx9cLFmyJC1HJDJM8W9+85u0/4knnjguTbDtIYcckoYKYBBvueWW0TXrGvu6c6vSrFmzil/96lfJQHLdG2200ThjT4sv1/7973+/2HfffVNrfJV23333dSpDOKdoLeYl4rypOOA69tlnn7FjHXPMMePu2TPPPFM8+eST6fxz7b333sW1116b/r700kvT+Rx++OGp1wVmnBfvsMMOS13WuZfXXHNN2jZE6zdDBPh+jpX3ymja99lnny122GGHlF6222679LmVaOU+4IAD0rF222234qKLLhpn7MkEeJ7f+973im222Sa1kleJe5c/2xAZ0wYbbJAM/rJly9L1PProo2kdmRfPMs6fe3v++eenvxHDTLgHXAfXy5AD0luo1fMmDXEupA3W852HHnroWDrtJh3yLDnPCy64IF0XlUFUhuSqe3+UUkoppTqRxn64pbGfgWpl7E8++eTi2GOPTX9j7DFKTz/9dHp46Kijjip22mmnYsGCBenhYnROOeWUtI5WXwwNRiWMDF2UGbP81FNPFYsXL05Giq7eJDB09dVXJ+P3/PPPp0SCccF0IRIj6zDNrMMEYpbCfJcNVd25lYVx/OpXv1rcdtttxaJFi9JY7DBviGNjPjGQb7/9dnHxxRcnYx7nnevxxx9Px6Knwty5c9d5aebMmVP8/Oc/L1566aVkRjGUjMdHmPIHHnggtdhzz3jp2jH2fB/jzTl3zgnjR28Jjo+BxSSG4eVdowKAa8MUcq0819WrV6fvq9uXe/mtb30r3Sf2pScCn3keVTrwwANTuuH+8kw322yzMWNP+uAe8v3cU66b86o61n333ZfSTZV4rmHeOR+OyX284oorUtrib5Qbe66Ve3rGGWekDAnzTOVDGPu65x3GfosttkjPkGuL64h9J5oO41lSuUVFwpVXXpneyzhW0/ujlFJKKdWJNPbDLZ7hjDT2mFu6UXcLxxk0lY09DxwDj9GK68GgXX/99elvhLHDwOQvPQ/3K1/5SjKFKO+KT+KhBZIx6CFM1y9+8YtkoFiPoc1bKDFVtICzHYYYAxpGDWEwMTYoN1TtnFsuKjAwYLk41zD2mG+uJcTLgOFtNbkghp5WXs4Bo8y5h5YvX56uK8R5sd0HH3yQPnO/86747Rh7WsVDPDvmSIju9Iix4rSWIwxu3qOA+86QC4xn074nnXRS2j8X941W6LLiGXB9oXvuuWfM2POco0IjdOSRR67TQwCRZuI5l7Xffvsl4404f1r+eVakZ1rdQ7mx53nQO4PtQ3mLfd3zDmOfHxsDzj1E3aRDniWTFoZI62xL5UHT+6OUUkop1amILzT2wyue4Yw09rSGVRn1Tml3krR+EmYSA4IZAibNo8Uyn5gMY0+LaIiZ0tmmLLom8yxRbux5tnwHxjEXXcjp+k6CK5ugXOedd14yfrkwoxgfjGhuqNo5t1x0Ey9PwkYrbBh7ZmKnkoNjBnxvuZt0WRg7TCet2mFYeYnoTr3tttumHgc/+MEP0nmvWrUqrZ+IsacreC5aczGyGEEMKd8fRhUznZvDsur2xTRTmZKLYQVUvpRFF332zTMN7lcYe+5LpLPgG9/4RuWcDjyHVi32PJu8MoBWdO7n8ccfP7pkrXJjT+s6QwBy0bskjH3d8w5jT94VIu2EIe8mHVY9S+4RlQhN749SSimlVKfS2A+3Zryxn6gx73b/XgoziZHhgQGtyuWHXTb2tOhj/HKxD2N/MaMoN/YkJoxJOZPAyGDyaLFmPd3Jq3TJJZes01rMzO3sw765oWrn3HJhTDHbucrGPrqM53BNuahgoHU171WAmPQtzDmmmi7pvAicE12uOe/JMvZ8d4yNp8s54hmEOWd8/J133pn+LqtpX7qUlysFSBPcn7J4nzGwucrGntb28j0l4ymLHhDxbHORKVE5Qjf+EM+ebcsGOTf2tLCX15eNfavn3Ymx7zQd1hn7pvdHDbZ438p5rlJKKTXVouzR2A+veIYa+wlo0I193hW/SmVjj9HBaORjomlNZBkPF9HKHsYeMSEdP1MWwkgy3pwx1Iju0blJw+wykRjbYbIxhSTGEK3HdHVHuaFq59xynXrqqeu0FHPcMPYYvnJX/bKpR7w0tOySlnNxTbTM8wJxnNyI0euA8wpjz3j23NjzbpRbvulh0MrY84JxvDDmiHkKwpyfcMIJaWx5LowuFQxN+3Kf2D8XvSiqWtm5z+X7nRt7usPTjZwMJoRprhLPnG3z9IdoEadCKioDqFjhuTFkBMOf//5+buxJb1Rg5GmJawhjX/e8OzH2nabDOmOPmt6fmSSeB+8Rz5v5EZjks9XQmH4U6YQ0yLvIO8BQk6pKrYmIoSSt5nFoEgU96ZmKTSrmmCiVPKhdMSwn5ptoV7zX9MjJ36kmkafmw1Z6Ke4P94mJNnmmVELnw5kGQZQ/5EsB18I1EZ+FKAfybXhm5JNVeZkar/L9zSlXWIfoXcd8Kq2UNz5MtphYtupcmUOoTlXlY7+L8vnCCy8cF6uG6HXJMDveB+bVaXfYGw085E/02Nt8883HDcdExCYsJ36hIYHtc7E9z4D9aXjK11NekMcQDxDnMFyy3Z/jbSWN/XBrMo09Q2o19gOgiRh7REaIyXz11VeTQSWDylvVmQyPzAszQyJigjcMGi2ZJAKCTzKnMHQcn0Cd9MB6gob9998/rSMhsi2BMOto8dxwww3HWpBzQ4Wazi0XmSatqJwXARnmiWNFocn5M6kZAS9mje/GUFVlppwf58nM85hljkkLPS3CiAw5rpHu6swsz3fFmGuWUznAv/REICAg8+e7OR73iO1bGXveIZ4lwTXXzjPgeGHm6eXA8TCDvISsJ0Dju5r25R5TycA9p8CjlwOfeamrRIHIMyQzWbp0aWrxD2PPM6e7P8+J6+IZ0dW/VeDw4IMPpnPj/eLcKPioLOEcQ5w3xyCtcY4cPwx5buxZRtrhmXDuVDjw/MPY1z3vTow96iQdNhn7pvdnJol7yESE3Bvu+XXXXZfSIve4HWFSqgK56dLZZ5+d0h2FJBUT5aEj3agbY3/OOeekd5QAlnyRYR7c13YrTXge5SC1TkyCSmBKXkTlTLsBKvkPeUKvRV7B/SEPIB1y/eTp5YrBflcYTyqWaZHhusgf6S0WFU68M/QWI78GnjMVu5Rng1aRMd0q398cgusqUcbRe7KVptrYE6uUzzXK01YaJGPPuTI/EWU95XvMkxPiuRBPkDdT3s6ePTtt21TGEMuRp1Mmcc94juzHBMKIvIthhwxjZOgjcQmNOXFvSSNUJBCXsz/vHQY+/BENZlT60JORPIcKuPj1qolKYz/c4hlOlrEnZtbYD4Amauxp2aWlE4OFUSJYzQt4MjBqOemOjNEhAREA0apBxoeJwTiFSGiYMzJZWotoHc7TBAkHo8+5Ekzk471JuLmhajq3suiejmkigyWgIUPPC00CUJYRxFHocc+qxDVwn7bccst0nptuumlqEedFQhhoDAUZN8cjgCaTjoKQ/SlguH4MHOI8MKkYcK6Jn8irG2OPOaYygcKA7bmneaBPQIwh5H5hSHNj3rQvLQicd9Q0h+msUvzcHaYZE0YLaxh7RHAYz5M0gUlvFeQg7jnH4XhUGOXvGseisIzz4T7ynPJJA8PYI8bis570wToCcSYHDLV63p0a+07SYZOxb3p/ZooomKhwikApxP1gIsx21I2xr0uj7Yr0QRpFk10xM1FjzzvEfaXyLxf5IWWbWleYn3JQTd5AHkD5NygK45nna6RP8vkYNsQ7U86fSLuYfyqpVGtV3d9Wajd/mWpjX4732lGnxr5TU9GkTo5HLEZsRqMDv6JTNvbEm1xLXtlI7JU3JlSJ+0YjRi7m9IlYhDKceDrEe5b3MOQdI18JsZ54kPeQ66Psj9gQ5UNSJyqOq7EfXk2msaeySWOvVB+KCgWMKzXGM1F0Y89FBQOFu+p/UTFCC0h5CAKFCuYUUVjRIhJdygnIYh1GhEAoIBil0invSUGhxzoqgBCBGBU0VCzRQoLocUPlFhVTBMJUBuWi1w7L+X5aOvMKtKZ96Q1D5SWVWPzsZ51J5BypHKTy6M9//nNqRc2NPfeFwJJunbzz5e8KEXAyqWdZtFBxL2g9pDWK64mfwCRI4NdKYgLLcgUaPWcYYkXlLsOquI95t1QqrbinVHTySyLxjJ555plUwRu/pEHgS0tVBCEcNz9XniEVEGzH82VIQKsKE86B4JyJJwmSaWGnR02ok2PRo6H8k5P8TWt2DGmqe9ZU5nHPuDfcIypwc5NMPsX38+xYR68dngXBFYE8f+eBN9fF3CWhdp99lfEk6CP9kY5RlbFHdBXmJzpVazUZ+6r8hbSX92CbNWtWepd430h3VM6Hsec9pNKYyn/SLb3PSB88Q/aJno0IU0iFTT7krqwmY9/qveU94TppeKDynTTPexa9Pniv2QfjyvVxnKa8t9W1ofLxeNcmcr1Vxp78mvOISnpUNt1VYr9yryWuj3cdcf7lXxLimdPCj/BCeX5Pnsd1c63kBzQy5NfC+0+FLPdpotLYD7c09hp7NUNEMB6FzUwSGRtBBzXg1NYTBNDanxsv1d9iTCRBI+mXgqYszCPGkOAQM0orNuYXUTGAcSPYCsPWjrEnoCZIpPCiEKM3BYE1LToYLoLHaN2hTOMz6wnS6PnC/gRkTftShhDE0juGijcCwbJ5DJGWCfowBaTfGFYSxp5rpXKD76d3B2PT+S7OoSyOceyxx45++kJhIONeEPBzTIJMAmLOLSrKuIdh7OkqSgUMPauYFJVz4Dhh7Ak2MJxUMnJuPAOOy3USxBKsHnHEEem6qEjgHSVwR2VjT48bWsmohCCuwHS06rXAs8TQ872cA/OI7LrrrqNrOzsWaQFDQdnPOZYrDJueNemXe4QxxhzRgki6DjNBsE86Jq+iezznyj1sx9h38uzLxpPr4JxIh3EuVcaeoBCDielUrdWOsc/zF5Qbe4xi1bsUxp7eZphD0hB5BumRijDEv3llD8+R96pOdca+7r0NY8/7wzmTZ9B7MXrD8V6zHqPOcci/mvLeumurOt5ErrfK2GN6iBMw8pwT10PeWu7R1KSVK1em+xX7cS7luItlrSoMSBP09mvV04/9qircOtF0GHt6yPGsqqirRIr0FWLoFuW3al88Q56lxr5DaezVIIngmvTa6lcIhl10eyNgp6Dm3+huqgZDFEa05jLUh8CAoRARCCJal/NhChQ8bBctPQR7eVf8dow9kzKGOE65IogW10hHHAujHOJ8CRwxi3X7sh0ts3mLEyaLYUIE0mVxDzB+nG+I4QhhRDH6UaERokU//4nIEOfcKmDiXsREXnwXrb/cQ0xoDBVBubEnIM/vKSJAC2NPZQvHCBFkcB8Yz0/AjpEnCAnxjOlVgHJjT8UJ55cHoNxfKgZi7pJcPMu8dw7nz5Ab7n2nx0Isp/IF08z5E2hHEN6UTgjwYxgP4lnzXdHix7CbPC3wXZxfO8a+k2cfxpNr4JliIvmcz2PAs8oNBNdIyyx5KBWkqrXK9zeI3hnl/AXlxp53ujxvA/lEGHsMb7SKI9IMv4CDiLGpXIoKGnoC5b1CqoSx5/3LzzXm2ql7b8PY53kxlXEci/TCe827ludXTXlv3bVVHW8i11tl7BH5NceP94GKt05EnsI7k8+hwueysee95D6UhSeixxIVglWKyoZuzTfnOR3GnmfBMysTlVlVKht7erNFukeUdfSIUq3FM9TYT0Aae6WUml5RKNEyTC0+wRxlSSwnAMD80aJNN3UCMwJsNBFjX25VoCWF8dUYa4JwDFnMxYChyg1ZWa32pQzke2mdzUV3VrrflkXLXTkgzcfYc13cF1qMAoLsvNIhxK9etNNij/ibZeVJ/3Jjz6SR/NRnLlr3w9gTjGF08nPjPhCEE+xhJnJxnWHIc2NPJR37lsWQAeKKssrPkuCYa8FUd3qsXBgJzotnmrcY1qUTAvxyaxvPi8oGjBDnlbcQ0tLPsnaMfSfPPoxnTO5GhS/XwjOI7+edweCE0eM6aK3n+lS9yvc3iC7VVflLbux5l6JSK4TZCYNDWqClmvcLk02PFMw5Ii+MIR48V9IA29eJfamgys+VlmdU996Gsc97JsS1E/hXvddNeW/dtVUdbyLXW2XsMUB8J73DeMeo5OKZlOd2qRO9XphnKf9+8vJy63xVKz73gXeZe1NlvsgL6OVRV860K44/HcY+72XVrsrGvqzJMPZc+zBLY6+xV0qpvhUBZtn4IsaiR4BIsLPZZpulAoeCi26cBIuTZew5LmaPlle2RUy8GYaNFiUm5KxS3b4UunxvOZjC/HGOZWH2y91My8ae4JDeCzl5C1iIbt+MNy+L8+Wc8hZrzBzLyqY0N/a0RJfNStnYRzfxHO5BJ8aecyHgz8UzpyUrWsZz1Rn7To9FDFO+l3E8nmFTOqkz9tF6n5ukTo19u88+zFf+XYh3KsYD884wV0UYvarjqGq1ur+hJmPPPAZUVObKjT3vHS36McSDFt4wvyjyN76jnN6qxL7l8wnVvbdVxj7S7ESNfd21VR0PdXq9VcaeOVxoYc6ND9d94IEHjn6qF+84Fcox/0CInkzR+yGU90YKUZlBb0Lua1lU+uE3yseZqLjGfjD2nAeVIVSCUmFETygqInNjz73iWFGm58T7wPlTIUMFD3k35XGef5N/sT35Jb3+GOowzNLYz1BjzzNgHBMTkQzqb/EqpYZftKrSYlRuhSHIie6q/EtwF4oJ4MLYEzTlxp4CPg/sorW0lbEnn89bCSgkCeLCsPGLHuWgi26cBCNN+9IKyk9uhjB4BDrlyQIRgQxBT144EwiFscdE042fgjwU8wqUReHPNZfHkHKv8vPl3hDw0nWY3hAxmzMimA5jz3nk9xixXxh7grZy9+IIYjsx9pgKzpvAIkTFD8sINMqqM/adHoshCeWeFNFdnmCn6VnXGXvE/cq74dLlnWMTXHEsWtA5/xDGI4x9J8++lfHknvMTiAhj345JUuuqW2NPb5pyTwvSRhgZ0lT+m/c333zzOGPP99LSzfcwfKdJdca+7r2t6opPZVneFb/8XjflvXXX1srYd3q9VcaePJiKyFwMY2Ei1Cbx7mNMY06QXNxXDHuI95h8NDeevPNMAthq+A/lC5MWsu9kaLqMPfklaSQnz5+YQ4Jnz2Si3A/KEio3q4w9+TXlKWmR9MDfERPEz3AyfI10RCxAGoxrCWPPO8Z3VlXaDpM09hM05t3u30sRuDCOiBpDEgBBxSD+Fq9SavhFgU6AQIBFXkWBjokhwItx6FRMUrBTthBckZ9RkEegRDDJxEjkfRRwFOzsTxBKIUWrSh5clgPvCFbpnomxYjZ6tmeCMoQ5pvIBM05hx/cxERmBR9O+BHUYMrajsMSkY/YJgsqikKa1AZPN35SnBIlh7NmHVoto4aCCg3sXhqEsKiP4Lsw614Bp5VzDaCLMI8fgvmGwOX4E9rmx59owqWyTT/gVxp57jzGl3MFQ8wyowKBlrhNjj7g+uiszuz3XiJnOWwFz1Rl71MmxYkI6WlMpOzkWs9DH/Wl61k3GnqEMBPgYG+4X27I/wRXCIHBMni3PjLQQxr6TZx/Gk3U8C8Y1E/ASVMe5aOwnrm6NPWmHlkfSE8YX08nxwtgTe5LueMbkOeQBdAHPhTkibUWcTVf1snEN1Rn7uveWNMd58c6QF5F/MnleVEpUvddNeW/dtbUy9qh8vXWqMvbk21QOcJ38zXtAvsx7gegZVTUnCc+aPJS8k79zMFEci3ib+8ucHvwMHsfluSKum2vivuT7xpwBnA9d8Hmn8/WRB09E02Xsea5lIr/iu7kP5QosKpKqjH2oqis+5X7+ywKIdEOlEApj306lzzBIYz8DjT1B8DD8Fq9SamaIsgKjEb/pj8HJW7Qx0BT+9EDCzGD4GfcegTX5Gl3w6HZNwEThRss0hT8VAgRdHLeVsUfRZZDJjVhHK0He/R4zR4BHPkowQuEXqtuXcyF4i2vDTBFAtxLnSCBOCxFdpzF6YewRASA/50iwyDGpZKBArxKFPa1S3AO+G4NL2RziWLnRZ3u+O36jOTf2iGsiWMOcYmI5bhh7xM+v8XwIdDlOtGR3auwZq0xASOse5pZZsiNQLqvJ2HdyLMQ18Hy5XwTcGBMmbwzVPesmY8/9xTzwbDFhGP28XCY9U2lFOucZs20EyqjdZ48x4LgB23Nc0nBIYz9xxf2N/KesJmOP4l1iKAfPmfcmjD3Pme76pBOeN9vy/CJNI1ot827kbEPMWqU6Y49avbdh7Hk/4+fuSO/Rklr1XjflvXXXVmfsy9dbpypjj/Am5IEMp8FcUoEaRoh8tjxWHlExm79LOaQDhGmn/OH+YUrzXlLMW1K1L/cZkZdUref9nKi4pukw9gyPI7/N4fkivovryHtnIJ5jp8ae6yANsi15Mu8SlZRRfoSxJ/3MBGnsZ6Cxp2aRoIEHHeJvXrqY3IVWL14eMlEymH78LV6llOonUaFAnkUL6ExUbiz4m4A9TKtqFuVwHngxUSQBKoGZUp2ISpl8iA+TuMVvpw+jytc7maKiD4MdlQ+Druky9nVj7KncwAvQMyPXRIw9lbFUJtMzirKXnno8L429xr4jDbKx52FQo8X5D/Jv8SqlVL+JFnDyyJkmgl5+H56AjRZmWsFpkatr/Vbjxc/Jcd8o7xgaQMsuLYVKtStMzezZs1MPlGg5R7SMD+O72Op6J1PEtoMY67dSPxj7mD+kXPHbqbHHv9CrLO8Zhmi519jPUGPfLYP6spMZDvpv8SqlVD+J4IJygTHmM00EDVTqMhyBruIHHHDAWLdL1Z6IiRjLSzdlKscx+VNlVtRwCuNDDBbx2rBrpl3vZKgfjD3fj/mmES8X877UGXvyRGa9D1HpgqfIjT2Ngngbjf0MM/aMESqb9IkQY40GVbwUmHCCiLw7PBOb9Ptv8SqllFJKKaXa03QZeww6vqBMzBlCwyi9fRlCgVFkPgXmIagz9vgFhng9/PDDY8ehpxiVO5h7/AxDgPEsMf+Lxn6GGPuZLJ4DDzwXre1huHlog/BbvEoppZRSSqn2NF3Gnli/ihiqxnkQ/+MvgH2YWLHO2OMnMPJ4lJjsk279DPmlIZB9Mfj5T9Bq7DX2Qy8mdxqG3+JVSimllFJKtafpMPaqd9LYz0ANy2/xKqWUUkoppdqTxn64pbGfoRqG3+JVSimllFJKtSeN/XBLY68mXSSgPPH4W7xKKaWUUkr1Vhr74ZbGXk26/C1epZRSSiml+ksa++GWxl5Nuniu/havUkoppZRS/SON/XBLY6+UUkoppZRSQy6N/XBLY6+UUkoppZRSQy6N/XBLY6+UUkoppZRSQy6N/XBLY6+UUkoppZRSQy6N/XBLY6+UUkoppZRSQy6N/XBLY6+UUkoppZRSQy6N/XBLY6+UUkoppZRSQy6N/XBLY6+UUkoppZRSQy6N/XBLY6+UUkoppZRSQy6N/XBLY6+UUkoppZRSQy6N/XBLY6+UUkoppZRSQy6N/XBLY6+UUkoppZRSQy6N/XCrp8Z+6dJlxfsffCgiIiIiIiJTyHvvry7efe+DYtW77xcrVr5bLF22onhrydvFa68vKl566eVRS6cGVTxDniXPlGfLM+ZZ88x59lVpohULFy7S2IuIiIiIiPQbGvvhlsZeRERERERkyNHYD7c09iIiIiIiIkOOxn64pbEXEREREREZcjT2wy2NvYiIiIiIyJCjsR9uaexFRERERESGHI39cEtjLyIiIiIiMuRo7IdbGnsREREREZEhR2M/3NLYi4iIiIiIDDka++GWxl5ERERERGTI0dgPtzT2IiIiIiIiQ47GfrilsRcRERERERlyNPbDLY29iIiIiIjIkKOxH25p7Gcgc+65r/irv/qrMf7xH79b7LzzLsWTTz1duX0/8tLceencl7y9tHJ9EyTySy69vPjtb39XrL/+Pxc77bRz8djjT4ytn3XX3eme5PtMNZtvsWXx4EMPV65rYvmKVcU555xX/PKXvyr+6Z/WL3bccafikUcfG7dNN8efLLp9bmX64Zpk6vnD5luMy7N4b8886+xi2fKVldv3I4cddkRxxplnVa5rh+eef7HYe599U37F9Z9+xpnFO0uXj60/6eRTivPPv3DcPlNJt3nkU089U+yyy67FP/zDd4r/+I/fput5+50vYoJe5MFV3HDjTcWWf9yqcl2nvLLgteLXv/5NsfjNtyrXi4hMNRr74ZbGfgaCsf/W3/998fK8kecxwgsvzi0uuOCi4mtf+1rx4kiCqNqnHU47/YziyCOPqlw32XRrEI899rhik002LR56+JF0rKuuviZd/7PPPpfWL3j19eKu2XPW2W8que22O4pFb7xZua6JAw86OAX7993/YLqeK6+6Ol0PwXNs083xJ4vJNvb9cE0y9WDsqbiKPIv3drPNfl8cfviRldu3w5tvLUlpkeNVrZ9sujH2vDdUwJ577vnp7yeefKrYdtvtigMOPGhsGyomI/+aDrrJIznPb37zm8nM/+W5F4rHn3gyXc8+++43Fnj0Ig+uYjKNPUHW9TfcmIKsqvUiIlONxn64pbGfgWDs/8e3v73OcoKq4084cZ3lJIbysioGxdjT8sW+5UqMY475czLI+bIq2r0fQacvUqc8/fSz6Xq4J/lynuW+++0/blmvmWxjLzMDjD2Vb/kyzCFp6fWFb4xbDu28o4Nk7MmXDjn0sHHLML6cP/lZvrzMRPKfTvO4Ttlzr73T/ciXEYhwPdNZOdEOk2nsRUR6jcZ+uKWxn4G0Mva02u+6627p7+233yEZw6232SZ1l2QZ3V5PPuXUYoMN/q3413/dIHX9jK6wfCYoC2L5tdddn1qS11vvfyaTSTDKciCRXXzxpan7OPtjrJcseWdsPdvut/8BqaWK7ovXXHvd2LqyQaw7tzJ8J9dVXo5Bjq6seTDHcfguWss4jwsvvLh44MGH0/fk+++22+7FpZddnv4+77wLij322DMF5PSOWLnqvdSyTEDLvf/jVlunoQC/+OUvx/bneLS48zcv4ymnnlb86Mc/TtfEvcm7qeZwPVWBJz0xLr/iyrHP+fF5vhdfclk6P7rCcj7Pv/DS2LZ07ef72Yfnx3Xlwf7dc+5NZotnw3XnlSSdPDeoSyPcN54lwwv+/d9/Xdx8y61pf7q0sj6/Jqg7L4Ym0CrI/Web+x94aGyd9DdVxp7CirRAa2/VO8o2PPNttt127J2L4Sm832wf8L6yvCkfId0effQxxb/8yw9SvsW7l78XdWm5bOzr3pMc3kVat8lzyuvIr5555i/p7/z4VfkPaZ/rjn1p9efa+bvV/WN4Fvee+0fvgBNOPCnlRawrG17eSbYhP+HekL/FuhyeG72J8vc24Bk/+5fn099VefAdd8xKeTf3bP8DDhxXXhDIcD/JK7bY8o/j3u+m59YqnUD5OpueW909K+d/defVSRkgItIuGvvhlsZ+BtLK2NM9/Ygj1nZtxfhhOunySgJhGS1G2233p9RCRPdJAqxjjzs+rSP4JCAmuIxAmC6HBCWMgZ43f0EKTOj+TgJjPcaSwIjAfP4rr6ZAOLqWkhhZR+UC6wjSCG4I7FhfDpDqzq0M13nooYdXrguqgkoqPQg6aelrx9j/7d/+v8mIzn15fnqZMPU77LBjapHimrkXrYz9n/98bKpQoTWRe/enP22fuq3Gtjlc50EHH1K5Lic/Ps+XAHz23feke8l959xi26OOOjoFznw/3fl5FnR7Zx2GALPAsyDIxVxwHYz37fS5NaWRyy6/otjwJz9J95uKCs6T/auMfd15cS6YCda9sfit9FzYlr/ZV/qbKmPPMyYtkEar3lHyAgzxddffkLZlfz6TFkhf5GvsQ4VWpLemfGT33fco9thzr5SOMdSY+KuvuTata0rLufFuek9y4jqbhkmVjX05/2nH2Of3j/eG9+vEk05O3z1r1uyUZ4RJzfNIAgbuBb22Fi5anMwtZvWee+8f+77g1dcWjt338rqcqjyY4RfkR+Sh//mfG41VxFL+xGeOz/h83m/uLevrnltdOimfR9Nza7pn5fyv7rw6KQNERNplOoz9McccU3z5y18e44c//OFIjLxb8dBDD41uoaZKM9bYY24pKLuF41Qdv58pG3seOAaeQCiuB+OXt/ZGcEkAEssIXP76r/8mBXJ8zrvik3hoYc0DSVqNfvLTnyYzyfofb7hhCnxiPQEZk9ixHSYSU8bfsZ7Ai0CZv/MAqZ1zyyEAbmX6g6qgMlrGoB1jv9fe+4ytqzpHrr2VsSeQ46WMdZwPLUrxOQcTHoFjHfnxeb7RKgeMzyWY5blwz7h3+QRP3HtaAPmb+0dgG+vYh2EcBMidPLemNMJnWrHy9Zwb+1cZ+7rzoqWrbIwwHlWtoNJ/lI09xhMTzjtK/lX1jmKMSBPxGdiHVnj+LnfFb8pHIu3mXf8xrhyvnbTMuYTxbnpPcuJ7yR/L63Ly45fzH2jH2Of3j3P82c9/PlYxAa1a7NmGijcMdmxL5enZ55w79jkgb+O74h1uRX78OL98gtOLLrokvd/8TV7KRJqxDg4+5NDUa6DuufF3UzrJz6PpuTXdszz/azqvTsoAEZF2obyaDmO/8cYbj5QpzyQefvjh4sQTT0wm/6abbhrdSk2FZqyxp3Wlyqh3CsepOn4/g3knoMDcAy2ZdF+84sqrxrbB+OWB9L33PZC2ic8B3REffezx9Hdu7OkiyXcQ7OXb0zWULv8kONYT3OTrA1omCMzyZRg0gmyCxzxAaufccuj6WA7kylQFlbTgxfp2jD0t3rGOrp1UnOQvFQF/K2OPEeUeEDBiQGn1wdzEtjm0DuXfxX7xbPMKnLKxz59vjFcmYOXa+Jt7GnAcWpPYlgCa+xP75nTy3JrSCNuzPrrmAi3sLKsy9nXnBVRe0SJJDwD245yqKubye0faKq+X6Ye0/3d/93djz4U0wIzp0apa9Y7SHRvTFZ+BbtNUHvJ32dg35SOYLlpny+uhKS3zd268m96TfDnXyLFb5ZVB2djneQK0Y+zz+0frN13O4zPQK6vK2ANGlHOggoM8i4pCyoRYH1BJwnfFe807nb9zUQ415cFsF7PmM7FilGMB6YWKvrrnBk3pJD+PpufWdM/y/K/pvNotA6iMye9fXhkgIlJmuoz9tttuO/rpCx122GHFz3/+89FPw6XPPvts9K/easYb+4ka82737yWYGUwm5ggY+11+2GXjhykiuMi3YR/GkkarZ27sSUwEMOVglGCTIIyghfV0E83XB4z1LJtvAkH2Yd88QGrn3HIItKtaPgga2w0qOzX2tDRxPvEZ6ow9106rUXQVp0ttK2PPOW+00cZjnzEsPFdajzjvWN6JsSdApIUwh4Ccbbl3N95089i+OZ08t6Y0wrkQMOf3vc7Y150XLa8YNK4tWtPoMVJl7PNr5tmX18v0Q9onbfHcaVkn7eTrq95RutTnRhZI8xhc/i4b+6Z8BOhOmK8PmtIyf+fGu+k9yZdjGOlWz/fny4F3P645P/5kGHtaxMvHaGXseVdjXH38BB9lQZWx5/3jnkZvLT5HWcTxIg9tyoPLxp4u7fm7CwQ2dc8NmtJJfh5Nz63pnuX5X9N58T3tlAEEbfk1E7yVtxERCSjXemXsb7zxxtRq/+GHH6bPmOHrrruu+N3vfld897vfLQ455JBiyZIlaR2ilf/QQw8trr+e+Wt+m7bh88qVK4tHHnmk+MMf/lCsv/76xV577TViQheO7rVWGNCDDjqo+N73vlf84he/GCkXzxv73ieffDKdx9tvv50+o88//7z41a9+VVxxxRWjS4riscceGykjthsps9YbiZu3T941NGfOnHSM22+/PVVWcM39II39DDX2GLeqdUHZ+BEwEJBECxnQOsUyEhCfaV3IZ8Xnt4lvvfX2sc8Ef7SW3nnnXekzXRYZCxnrCbT5bWq2Y8wiYxnDhAGtKtFqnAdI7ZxbTswiX65UoHt+BGVNQSVBcXRdj2X8dnwrY895cIwwEVDXFf973/v+uN9nZ9xlK2PPMTHA+YRP8PAjj6bvjM/tGvvokpx3XSdDIHPgb3o80Esg1gEBLefRyXPjc1MaYT8C2lhPt1X2rzL2defFexqBOnB+3OMqYy/9B2k/T69lqt7R444/IaWJfDtaW2O4BoUe+8Q72ZSPRMt5VHAB701MntaUlnPj3fSelGF+jvJP+8X5tmvsGc8dFZdAfsH+/F11/zhvzHp+jty7KmNPXsH+YeqB+TCqjD1QTtAiXg4yyJcmYuypxGTYQ+RRsQ//Nj23pnSSn0fTc2u6Z3n+13RenZQB0l9EpWEVUfaVocdZ/rzLMIdEzOUw2ZCuqs41ytZWVL2X/Q7v3VlnnzMuVg2IfRjes/76/5zm84hhVE3w3pIX0VNo0003S/lRvp7eYCynQY04hO3z9WzPM2B/8sV8PXkaFYqUL/TwYYhTVPZNlF4a+9NPP734wQ9+MPqpKM4+++xkvGfNmlU89dRTxS677FJssskmxccff5zWY+y/+tWvFscee2wy47fddlsy91tssUWx9dZbpzH7DzzwwMjz2ix9Di1evDhtd/DBB6fjYsJ/OlJG7LfffsnAr1mzZuR+bjBSZt86ukdRzJ8/Pxl1jCti+MBXvvKV4uKLLx55Js8Wp5xySvGtb31rrAIhjP0222xT3HvvvcW8efPS8l5rMo39rFl3aewHgYkYeyAjxLwy6RHdD8mg8tYLJsMj8yIYJhFhyAi2aAkjM8U4kzlFwMXxCYgwyayndYIAlnUkRLbFqLEuWjcIslhfNohN51aGzJGClEnsOBbnQtfNyFCbgkoKbjJpgkuMAfuzTStjD0wOSOZPC0/T5HmkLbp0ci0Ei2Toeat8GSpVYjwv94vJqwisCUJjm3aNPZ95Flw/yzHRjOMP08D5c+2cF5kHz51Jw2ix6vS5NaURfo+fCiACHtIV95T9q4x93XlxfJ4vv4vNNWGSOE5esST9y0SMPWmNyjfSHgEbM9bzOSqsSOu0hHPcCJSa8hHSH2PXOTbpiPyOCR5Z15SWc+Pd9J6U4VxI26Rp8hvyD/IIzicK6iZjTzC72e//kI7FBHRcG/eMdVX3j4CAc6LFmXtGRSQt7VXGnqEIlCl0RefecZ5UNpYr2gKeB+8u49vZnuNz/zCzYV6a8uDc2LOeIQA8P+4P10gX+8gb6p5bUzrJz6PpuTXds3L+V3denZYB0j+EsWe4RfRGCQiuq/bB3NF7smodTLWxjx5ROaTnqu2DqveyX+FcedfI86lwjfk5Ap4LeQaxDu/2Lbfelrbl/cu3K7Nw0eI0TIb3lnvGc2Q/8mjWk6cQe1Bhx3Al8mh6C8a9JY1QkUBczv5UhvKuxy9+ENsRq9IgRT7BhJrx61UTZbqMPYb3o48+StDCfueddxZf//rXi8svvzxtQ8s8xvjuu+9On9GyZcuSkX/wwQfTZ4w9rfKY8RAt7+y3aNGi0SVFMvgs43vQcccdlyoIPv300/QZPf/882mbp59+On0+7bTTij333DP9jTgvvgvxffQiOOGEE9JnxLItt9yyOOOMM9LnMPZ5D4N+0GQa+/nzX9HYDwITNfa0xtD6QPBF8MJP8eTjQcnAqOWkOyuBCwmI4IsWDDI+ghhamWJ7EhqBIJks3aRpNYnMDMhc4+fhqADIx0GWA6SmcyvDOiZ2IhAnUyWzzCdmagoqgUKWYBLzyHfTIlZn7DEPFCzcC2agp/so9ybW5yaV4JSaW2pwuQd0MednmMJ4l+Fec3+4/xgAjsukTRQ6sU0nxh4zTEsWz5J7SmAa9xowyFRM8F0E1xEEQyfPrZ00QpDMfeD7MPrsT1pjfX5NUHde/JQUaY3KDq6dVrlWXfelv5iIsQcqhAjWSA8Y2fwdB3p0kLZiHHxTPkJByS+HkF+Rd7B/BOpNaTk33lD3nlSBGafSIbbHqOct5E3GnnNnGddL3kZexT1jXav7x3dy77kfHJ8KP8w46/I8EngPN974f6WglHtI3l43SSnXTwUr23M/yRMxsLG+KQ/OjT2QZ8b95BlQuRDPpu65QV06KV9n03Oru2fl/K/uvDotA6R/CGPfjuHN02EdU23s6/LXVrTKN1rRqaloopPjxVAZev0xcXDZ2PNecy15azgxHflIvl0Z7hvDefJlVMjFxKHkU8RbsY6Yhjwv5u8hT6ZSJV9PfkClIddHWUJlcaxvNWSrEzgu6Y7vmkpjj+nNwbBfcsklY2PRZ8+enZavWLEitaAHmOsLLrggbYOx32OPPdLfISbfo4Ig10svvZSOFa3pP/rRj9J3lfXrX/86tcAjWuFpkY/KgK222qq46qqr0t8YV45Hd//83DD1dM1HYeypuOgnTaaxtyu+SA3lgIwa3jwwlXUhM8ozImqtaQkko8q3E5HJp5xnYTDzX9OQdfGeSZOxx+hR+cXPadKowLJyJfVNN9+SeqvRq4+KR3qKhLEnWKfSkUYFTCIV7xg9Anf2iR4kgCmkwiqvBCzTZOyp6OJcaQTh13GodGJ5GHsqCeltQmUXE4ZiKFjPcED2wbhyfRyHBg0qvOLYlPEcgwoxPre6tqrjMZxoItdbZexpBOA88gaMsumugv1oGMmXcX1UrvI35x+/dBHwzKNnDhOzRkMFEO9w3VwreQkNcfm1UDlIDMR9imWdMl3Gnu7xdE+Hm2++OZngBQsWjG5RFNdee21aVsXJJ5+ctpmIsafigL/ptl/WjjvuWJx66qnpb1rzN9xww9RjIHoPRMVAHK8Kxvojjb3GXmY4e++zb+rmSY0xmTbdsWwxroeAgQCI2nS67BIQlccai8jkQ0BAsE7LEXkWwTNdSvNeMDIe75lAO8Yew44JJQBnWW7sMYp056Y3CHMB0fuF44WxpwcI5hCDTfduYlG6bLOOf5lIkr+Brt0HHXzI2Ocq6ow9RpJeIwzzowcSxpzeAxiFMPa0WHPOmHOG+0QPFeIc1mPUOQ7vR5Oxr7u2quNN5HqrjD2mh3cXI885cT0Mo6GFPN+uCX4mmPsV+3EuYfIDlrWqMCBN0FusVY9T9iv3xuqU6TL2+Rh7urHTNf/AAw8cXVIk4/2Nb3wjGX/8YU5MajfRFnvGz+eT4IWYHC9a7NGZZ56ZJuy75ZZbUjf70GuvvZaOh+kvn1uMwdfYa+xlhkNBRGFC1yoKRrpodfqSzTQYmsGQAmqw6UaPye+mC5qItA/dRWmpI8DlXwxr1XbyBd4zCWNPyzGt2EH8EgTG/vIrrhy3T27sjz32uDSEI1/PsL8w9hjeaBUHKpDil374+UN++jFanhkuEt/bCow9FVD5ucb8GJS/+SSYmAOG6DGPTxj7MOVAKzrHwphixJmvAlMR65uMfd21VR1vItdbZeyB8fQcn0oVzomu++Vt6iCew3QzTj+W8bls7BkGyH3IlwHxDkMF8wmDc6KygViyan279MLYo8cffzwZYTwgovWez3SJz/Xuu++O/jVxY3/00Ucno57/BF1sE2Ps0XPPPZcmxGPG+6uvvnp0aZG63VPBctlll40uWasPPvggrUMae429iIiIiAwxrSbPiy7VGPtyC3lu7JlLg4r/fH0+xp7KbVqqmU8Gk01jAeacdQTuVAJgbmntx2Q3VYazLy3B+bnS8sw65pyggoJW6ICu4By/aox9XDu97DDiVBLEOmgy9nXXVnW8iVxvlbHHAPGdzF2CcWa+Hp5JTILXDszjwwSX+fczNKHcOl/Vis99oOcB96bKfDH2n14e+bCDidIrY0+r/U477VTsvvvuo0vWbkd3+DvuuCMZb/79/ve/nww3mqix59/vfOc7xRFHHJEqDu6///7UWr/vvvuOm4iP7vj8VB37vvHGG6NL14pz4XsuvfTS5FsZb7/55puP9QTQ2GvsRURERGSIaacrfp2xZ9JEhu3l63Njj/mjRT8meqOFN8wvhHnmO9rpts2+rbriY+wZCkA3/BwMQ5Wx55y6MfZ111Z1POj0equMPRN30tqfGx+umyGU+XatYCw8E2bG/AMBQwvKvw7C3ErlihsqM+jhw33NlwO9H/AbrX5lpFN6ZewRJhszzE/XIVq/aRVn3Pq3R54t3fXvu+++tA5N1Ngjfr5un332KfgNeibNO//88ytN+Lnnnjvup/JycS6cE636G220UXHllVfaYq+x7z/amRVfmn9Xtg5eoksuvTwVFEz2QkFdnpF7KqGQpLBsqrmeDqj9p3tZtACIdEpd4Clr6fY9w4zwSxgMeWHiKoLrfFKnqYbWqqruqb2Aya4I6qvWiTTRrbHnPWTYWb6eWCKMPQYyj02uvubaccae76Wlm++5/fY7x5a3oi5/ZfK38rCAMJ9VXfEZI553xS/Hmswyn5tqtsuPUXdtrYx9p9dbZexvvfX21GKfLyOG22233cctq4I5NOjJwDCE8jruK4Y9PhMbMrQwH6JD5QWTAOa/YpTDL0YxaSH7Vq3vlOkw9qp30thr7KUFTb8rWwdj5CgkKOTo1kXmzjiw8uypU0Wnxp4xdPwGdNW6TiF9MTFgfCZj4T2ZrEJJZh4a+2a6ec8IrvmpTFq7yKOYqJKAnp+Nm67KwU6MfRincuvYRCF95eNaqYSdrrxaho9ujX2MpSZ+4N3EdHK8MPbEnvykGmPCaWnGKNIFPD8eLfxp7PnoTwjTVb1sXIO6/PWFF+emMee0MNNSjyGl8o8W9TD2tOoz1p24g8nzolKiyoizP8u4NgwxLdocI4x93bW1MvZQvt46qow9RojKAa6Tv8kD+AnK+DlL5hrgp3fzfYBnzS8W8MsF/J2DieJYjNvn/lJRGj+zzHNlf66ba+K+5PvGnAGcD13wyevy9VG5MhE09sMtjf0EjXm3+/eSfjH2JLKq5YMOBRIFVXkmZAJlxlvly6aKfjL2It3SL8a+00JxULjm2utSsEkAEMsIBGglZF2+7VTRT8ZepBsifU7U2AO/mMM7SVmKodxiyz+OGXvSPb0AaSXm5xTZ9o9bbT3upxZ5l/Ju5GxDzBqfc5ry1/sfeCh9PwaVbSnjWR7GnnHf8XN3TAwXcUeVEScPpds5hp38he/FUIexr7u2OmNfvt46Wk2e98STT6X5DfgdeSoKmOAw8nx+jadqJnvyDe5BFaQDtsG0U3HK/aMSJJ9pn4n2qvblPrOeSpSq9fmEhp2isR9uaew19utAl84DDjwoZba02NAdKdaRsbKMSUKYsITJTcjsIrHwL4EgmSKZ4+677zEWfEUhwPZ0GSVzZTm1mNTQsj3Ly4EkE9CQybGesUkY51hHrSbdlDiPOK+8woBxahQe1H7vu9/+47qWUrhSwPDTKhybmVdzM54XtHXXVYZzyLteBfwGe969s+66uc90zaLQ41+68zOpC7XkdMnieijsWv0US9nYc610gaNigefKvrTKsY7rzAsMnhPLW/12LdALgS5qnDsFesxCyzi3/FhcB9vyN88q0gABCsdmf1oJ81r2pvQgM4+mwJMukARM5GtsSyAa65re86b8rvw7zCyvy1dI51TisT3HY18K1Vh/95x7x/Iz3qH8XJryhLq8N3/P+Fx3XWV23XW3lL+Ul9OtNcwENOWnnA8GneeAEeDaCPrJw5hhmGC0VWCRG3uulYCW7+c+YAJ4huzL8SJ/gZiEihYwfgaL+8458lOZURawH/kf94H1BOkMWYh7FnANbE8+dsaZZzWeC+uB9Ee64rrJW6u65IpMJ5SrtPTHZ8r++O30YaR8vZMJeQt5QFQ+DDrkXRr74ZXGXmM/Dh48QREBGON9+EkTAkjMNesJcgiACLLJ7KjhJFCiyxTr6b4eGSD7032JseqsC1NHEIkhje5EBEvxW+UE5AROEUwSODJei99QJaESbFGDHTXTGGwCQgI0uoJx7ozJYh3PhrGijNfiJ1QItumKFkE2QRwBNt9LMMy4to03/l9jwSDXFca+7rrK0A3/0EMPr1wXNF133GcCSAw195eZaAlMeX5cL99B8Fw+NlQZewJ87iP7EvDvsMOOaR3PkRYBgtkw9WxDjXnVb9eynvvMMn6rmXPjGVHhwnOZddfd6RlxLO5lBM+5saf2mnOkyyHHjQqPpvsiM5M6Y086oQsmaYSKL1pQmMU5Jl+qe8/bze/y301uyleOPe74lCdhrEnjvLMxERb5JefGuZK3ke7pZsls2e3mCa3y3vw9a7quMlQUNM223E5+ynGo/MDQcw84P/IpPpOXUu7wc3DlY0PZ2JPfMXs0+3Le5DEYZr6PsoBrpXIyvp+WL4J78kvuO/eSfJt13EPuM+UO505FJccmyCFPovsw1xc9FsrGvtW5sJ58j5Y4uuzyTHk+fOYZsl5kOuF9v+XW29JY9bzHXuQb+bbDQKvrnUzIUwcx1m+Fxn64NeONfbcM4steZ+x5+IypygsAAjPGBfE3QU55X4JTDDZ/MyYdIxjrCIQIwMhww9RhwGM9gRcBV96FjAApxoIRPBEIE/jymfMicOd4EchiLmNfgi4mPiLxloNVvoOubZhVPhOI5maBY/JdBMx8zo193XXFsoCgkOC+vDyn6bq5z5wLL2KsJ73l3a8wxZxDVWFdZeyjhwQQfBN8xkvOcfOu+E2/XUugG62XwD2NFn3SV94Vv8rY5/vyW7HRLa7pvsjMpM7Yk8Z5H/NlpNWYnKjuPW8nv+M9CfPYTr5ChVn+rvEuRnonb4jxp8DxSPuYw3byhLq8N3/Pmq6rDHldXeVZu/lpPtMzY2g5n+iOCrTyMxY1PueUjT3mmaAk1uczSZe74hPckyflEwdy7zDw/M19Yv/I7zDgUSECpK+8K37Z2NedC2OE2T7WAZONUQ7ly0SmA2IPKhMj/xt2Ztr1Tgbkgxr74dWMNfaYj7JJnwgcp+r4/UydsQdaNAhUCOQIkAlsw+RVBZcEdmzL3yQaWqe2/ONWqbWJWtQI7sLU5ePOaJFmTFZ8BoJcgjSCUoJHxlkRQJ562unJ6EfCxMTzHfm+AV27+S6C23w53dEisCwH/EC38phVNTf2ddeV7w8MDSgHemWarrvqPhP40p00PueBfL4dVBn7/FqjUiBMRNnY1/12Leu5h/QAYJ/4PdvYtx1jn6cBAmQCZf5uui/5cpk51Bl7wETSE4heNby3pJfIm5ve807yu3byFQJM3hfeV/KM6DkA9PJp1TI+kTwhz3vL+UHddZWhq3xdi/1E8tPIg6JSBDifMMxlysa+fK1UgESFSdnYc8/5nOdX7E+vBdZj5Pmb+09FYrkiqMnY150LvaaoRMjXM4SCccL5MhGRfkBjP9yascZ+JlNn7DF61H4yHjNayTFvdcYeY8c+/E1wSDdXAicSEIEXAVcrY8+YzLIJprsk2+Wt4SzD1BKcxc9+EMwxbjPfNyAxcwyC3Xw5XTUjeKwK+Dl+dN/MjX3ddeX7A4Eu4y3Ly7nuaOVpuu6q+zzdxp5WLnop5HBfYxs+02OFAJbnT0bC8m6MfbvpQWYWdcaed5Ix6eQHYSJJf3XGPt7zTvO7dvIVIK2SL5KWqQCL1iTyBSaDiu1yJpIn5Hlv/p41XVcZ3uGq1nzmA4CJ5KfTbezZvpxf0ZIf+3MeVABRgcK8CXmvim6M/Xbb/WmdShHuA3lovkxEpB/Q2A+3NPYzkDpjT5BMwBTBIDAeOw90acnNEwcBUHR5pAtiHuDS4sTxWhl7un8yFjIP/mj9iJYWWujzLqIkVI6BMWUMI3/nwRvLY8IpfoLk1mwyFYJdWvSiCyaB6JVXXT22nnNkrC7dzfmcG/u664plAZPksW7uy/PHLafLGIEwfzddd1UwOZXGnmA3N/aMn23127Xcd84j0gD/0pMhKi3oSTFRY990X2RmUmfsqVzKTRRphx41ubFv9Z63k9+V38O6fIW/MXx5nsS7hRHkb3rznHjSyWPrgBZkDGo7eUJd3pu/Z03XVYZJtagIyL+bv/mZqbjv7eSn02XsoxwIY0+LPJ+57tieIIaAhr9vuvmWdD6xjnH++VAkWvInauyZs4Hnmq+n50U+5EJEpF8g39PYD6809jMQAl4CxHLrBgEvXS4JYmitZWIiDBxdQSMYJcghgCIAI+HQmkOL1F2z56T1tDoRiDJ+FVPODMFsT6BbZepIcASMHB/DGK3w0QLCZ2ZgJhDjGARfBGQxlhKjvNfe+6SgFrNKF9uY+ZVt6cJPKw3HxljzXZwH6wlE+UzAR7dVJkdi/0j4ubGvuy7Wl2E8K8Hi4088mc6NgJdxmpwj65uuuyqYnEpjz3G5drrakgHwb6vfrgWeCa2BzG/ANXKvYlIs7hFphn/5/k6MfdN9kZkJxr6qBwlplfebd4s8iHTNjOekMSZxZN+697yd/K78HjblK/zaA5VirCPtM2QLc886WuDJezHD5J98HxPS8Z60kydwXa3y3vw9a7quMnw/+Rv5FttTcckkoJj9yF/ayU+ny9iTb5E/8X0x1IF7TgUjaYCJC5lML76LGf+ZsJN13DvmEMknHuXXCajYZD8+d2Lsue+USTwnKhgYfsHnvJJBRKRf0NgPtzT2MxCMPQFXGYIZ1mNm6XbOWHJaHQgOCeJYF0EOLWC0LjF2k/WRWAgQCZDo6kjgxBhQDC5GrsrUAUEi4+g5LsFlebwiARMtR6zHUDMrc6wj4R5xxJGpKy5BJ61fJF7WcU6YRoJTAmAqATADsS+BKIEuASX70+qXB2O5sa+7rtg+hzGxdG3lnNiHn9rKJ4yDuuuuCian0tgTkBL48jzjeMzKzbUSpGKsogUUMO10QY1zz1tEyUAIfLmnmIBOjD00pQeZeZD+SDdlSFus5yfgqHgiTyKd02IaXd6b3vN28rvYFpryFQpUxp7zXZh2jhm9XQAjzoR4GHzSfX4u7eQJrfLecn5Qd11VUElJGcD4dO4lf5MvxPp28tPpMvZAXs+5xhh/8jpaz7kv9Nig11HcC/JjKlfoScQ+/N41lTxxLCpReFaRD3Vi7IEyibySZ0r6Kuf1IiL9Anm5xn54pbGXjqgKcgaVciAqIsPHsLznw5T3iohIb9DYD7c09tIRGnsRGSQ09iIiImvR2A+3NPbSERp7ERkkNPYiIiJr0dgPtzT2IiIiIiIiQ47GfrilsRcRERERERlyNPbDLY29iIiIiIjIkKOxH25p7EVERERERIYcjf1wS2MvIiIiIiIy5Gjsh1saexERERERkSFHYz/c0tiLiIiIiIgMORr74ZbGXkREREREZMjR2A+3NPYiIiIiIiJDjsZ+uKWxFxERERERGXI09sMtjb2IiIiIiMiQU2vs584r1qz5dNQiqkETz45nqLEXEREREREZYsLYr1z13pixX7LkneL1hW8Uc1+eXyxatHjEIK4ZtYpqUMQz49nxDHmWPNMw9jzraTH2y5evqDyQiIiIiIiITB6tjP2iN94s5s1fUDz/wovFk089Uzzy6GPFffc/WNw9557izll3Fbfdfmdx6213SB/As+CZ8Gx4RjwrnhnPjmfIs5wMY49P78jYv/XWW6P1DEoppZRSSimlpkqff/558dlnnxWffvpp8cknnxQffjhi4t5/v1ixYkXx9ttvFwsXLizmz59fvPjii8Wzzz5bPPnkk8Vjjz1WPPLII9JH8Ex4NjwjnhXPjGfHM+RZ8kx5tjxjnjXPnGffifDpGnullFJKKaWU6jO1MvarVq0qli5dmkwb5g2j+NJLLxXPPfdcMo/PPPNM8fTTT0sfwLPgmfBseEY8qzDcPEOepcZeKaWUUkoppYZUZWP/0UcfFR988EHx7rvvFsuXL08tvosXL04GbsGCBcW8efOSd5s7d24ykfwrvSOeAc+EZ8Mz4lnxzHh2PEOeJc+UZ6uxV0oppZRSSqkhU5WxX716dfHee+8VK1euTC2+S5YsSUZx0aJFxWuvvVa8+uqr0ofwbHhGPCue2f+/vTv9kaLa4zDOK1/6L5j4hlcmNyYkJsTEGCMhRiUuMRqNRozLdd9xRyIiaoxEUVxweXFFxB0FF1BREDEiOwECF3AGbkCGRVxAGc71OfTBmqJmpqe36Z5+Pskv9FJdXX1O9YRvnVPV9B19SF/SpwZ7SZIkSRqCCHcp3HMl9YMHD8Yp22nUnvOzCYiM/pLTCHEER6v5ir6hj+gr+oy+S6P19Cl9Sx+nUG+wlyRJkqQhIgX7/Kg952UTDBn1ZUp3V1dXDIyEOKv5ir6hj+gr+oy+ow9rMVoPg70kSZIkNalssGdENxvuGe1lKjchkYuwERit5i36iL6iz+i7bKinbw32kiRJkjQEEfJ6C/dM4U4Bn9Ffq/krBXr6rrdQb7CXJEmSpCGmt3DPedmEwxTyreav1F/0Xa1CPQz2kiRJktTk8uE+G/Ct1qsU6GsR6mGwlyRJkqQWkA33qVI4TEVgzIZGa3Crt/7I9mG1oR4Ge0mSJElqESkEpsoGRKt1Kt+P1TLYS5IkSVILyodDq7Wqlgz2kiRJkiS1MIO9JEmSJEktzGAvSZIkSVILM9hLkiRJktTCDPaSJEmSJLUwg70kSZIktYnu7sNh8crO8OoHy8Ok6QvD+GkL4r/c53GeV+sx2EuSJEnSEDdj7upw7i0zw3EjJoZh/5rQa/E8y7G8WofBXpIkSZKGKEbih4+ZWhji+ytex+vV/Az2kiRJkjTEbP95fxx5LwrsAy3Ww/rUvAz2kiRJkjSEfLuiI5wwekphSK+0WB/rVXMy2EuSJEnSEEH4Pn7k5MJwXm2xXsN9czLYS5IkSdIQwHT5Wo/U54v1Oy2/+RjsJUmSJKkOfv3117B9+/Zw+HBjfkKuVufU91e8TyPQbrQf7ai+GewlSZIkqcZ27NgRvvzyyzBv3rywefPm0qP1w9Xri0J4vaoRV8un3Wg/2nHnzp2lR1XEYC9JkiRJNZQN9VQjMlSlP2lXafF+9Ua7pTY03PfNYC9JkiRJNZIP9Rs3biw9Uz8z5q4uDN/l1Kh//yeMmzK/8Ln+ivetN9rPcN8/g33J008/HW6//fbSvfZD/9IGc+bMKT1SmT/++CPMnDkzjB07Ntx7772lR8tz5ZVXhm+++aZ0b2A4/4Yv+m233RZOO+20cODAgdIzQ0tHR0c48cQTPc9IkiSpCQ1GqEcl59aPHT87LFreEQ4cPBS2/m9v4TL9VaPOtTfc989g/zfCKGHwpJNOaqrPt2/fvhjitm3bVnqk9ujs66+/Ppx++ulh1KhRYfbs2aVnBu7QoUMxzN94441h2bJloaurq/RMeaoJ9jNmzAhjxowJX3zxRWyvRl2gBK+99lqYMmVK6V59GewlSZKa02CF+u7uw+G4ERMLg3dv9cFX60uvPqLSYM/78v6NYLjvm8H+b4sXL45h9LHHHgvvvfde6dHB11+w7+7uLt0qT9HyfEHmz58ffvvttxjKqwn2fMEI15WGzkqDPe3DQRn20Voqt30N9pIkSe1tsEI9Fq/sLAzdfdW8Jf8N6zbvCtNmLY3rqDTYU7x/oxjue2ew/xuB/t13342h8tprry09eiymdxOqPv3003DdddeFU089NTz66KNh79694eWXXw5nnnlmuOyyy8LXX39desURn3zySbjiiivirICJEyfGL35CQHv22WfD2WefHS655JI48szI9+effx7fK9Wbb74Zl7/rrrvCCy+8EG699dZw3333xZHpuXPnxlB8xhlnhAcffLDHgYD88n2pNtjff//9AzowwgGFiy66KFx88cXhrbfeCpdffnmPYE8b0J7nnXdeeO655+LBhyLvvPNOeOihh0r3+kY7Tpo0KTzzzDPhnHPOievnwE5S1F70+/Tp0+Py9BN9nab6cz/bT+nxVatWxdMC2EduvvnmeD9ryZIlcaYEffbAAw/EL13C/sF+xXNsH/2b5IN9X9sGlmf9rOuaa64JixYtKj0jSZKkWhjMUI9qr4aPaoJ9I66On2W4L9b2wZ6ANGLEiPihs7eLEJgIVePHj48/vbB27doYxglUBNrOzs7w/vvvx3Xs2bMnvuazzz6LwXT58uXxNxgJ8VdffXUM73j++efj+mjX9evXx/VxIIDn6QDeb8uWLUeXJ3gShFesWBGfX7BgQbjgggvia5n6/uKLL4YbbrghLov88n2pJthzgIHp/Jxff/fdd8fAzmftLYzzhWSUnYMktBuv47OmYM+Ues7T37BhQ2y3hx9+OK6vCEGd5x5//PFw4YUXxpDf2ywHgj3byb5Mf3Jwge1IfxCK2uvJJ58Md9xxR+xzvg+EfvoNBw8ejMH6qaeeOhqoWe6UU06Jn40/9B9//HG8z5cKfJdGjhwZPyvP89l5z99//z2eFkKY5+ACy//4448xtKd2yQf7vrYNHFB64403wq5du8LChQvjvsmykiRJqt5gh3pMmr6wMHCXW6gm2PP+jWa4P1bbB3uC8VVXXVW6F8IjjzwSg1aRFOyzX1hG2Bl5TQi4hDbaituXXnppHHlO/vrrrxg+v/vuu3ifEDxr1qx4GwT0NWvWxNtFU/EJnh9++GHpXgi7d+/usSPTebwmBer88n2pJtgTSnlfwjihmEDOSHVvU9QZgSeUZtFWKcCynu+//z7extatW8PJJ5989ABHFhc9ZDYEX2pCK6PxjP7T1nlpxD5r3LhxccYG8u3FH2s+F4E6oY2HDx9+9BoC+an4U6dOjUE/i8/KaDp4juCesJ+w37Ht7I+E/Oy2c4CAg0HIBvv+to39ldtpfwL7XW8HPSRJklQ+/v872KEe46ctKAzc5RaqCfa8/2DIh3v6o521fbBntDwb5L/66qs4yknYykvBnjZJGKFnqnMWI/hLly4N+/fvj8sTSrMmT54cp56Di8wxhZ/tYKQ+jfSjt2DPCHDCdvK6m266KY7sjh49Or6G1yK/fF/6C/ZMK0/1ww8/lB494pdffonvy36ScJCCx9JIdhZhOv9e6Rx7DkrwOkbWaRuKqeQ8xshzHtdHSMEcvB/L56e/oyjYM+LOgQbk24vPyfvnsX6+D8gHe7aHMJ7FdPp77rkn3mZGRfZgT9brr78ennjiidK9Iwj8BHRmB2SDfTnbxn5GO7J9TMMv6gtJkiQNXLME+3YcsYfBvqe2DvaEaAIT05NTYGW0neBU9MUcaLBnWjXLZ0dUQbBkenRCkCV0MZJLCCPso5xgT0BkxgGdRshnWV5Tj2DPzIBU+YDIheZox02bNpUe+Wf7GVnOI+RyQCIrH+yZhp59T6poxH7ChAnHfEZmUTD6nVcU7Bk9Z5Qd+fZi9sFZZ51VuncE7cwMgdRP+WDP1Ph8cGed6ecUOfeeP0BFmAGSH+2nTWkP2iUb7MvZNtBunBJCm3OqR3+nZEiSJKk8zTAVv93OsUc+1BfljXbT1sGesEMo5jNli/O5GTnNG2iwB1PCmQWQMMWac+I535nbTMPP/iwc78u0bKRR8L6CPVO8swcJGN3lNfUI9v0h0NKmCV+4NNKcN23atB7T0cFMiTQVnwCaH/XmQEkRwnB2Wj/tysyFNGqdRbDnwnRZzHZIF/3LtxehmPbkC5EwA4PHUkCmz7LBns/G6QBZjMKnz8tzL730UrydvP3227Gf+fycY589gEE70DbIBvv+to3HmcmQZp/wL5+1mj6WJElST4Md7iu5Kn62UE2wb+RV8WGoL0aObdtgz/ntRefTc1V7zoPPjw5XEuy5CBzrYnSVRuXCZoT9NOLNxc4IpTxHaLvzzjuPHlQgoHJhN4JmmqKfD56EWkIf/cPUc85rZxvTwYJGBnvOiedCgXxWdiJGiNNIeB5fSEaWWZbgz8EPtjsFew4Q0I6sk+n3H330UWyrFFKz+KysiwDMhfaYWs8Bm+x56gnBngvZMUOCHZzgy7n7KaQXtRehnVMHuIghB04Yec+OqrMOrjhPqGafoR95D0bt+UPDzATu0yZgBJ6ZIRzcSdtAuzEi/+eff8b9g+DPPsHIOz8hmGYAZIM9+to29hnahYMWtCEXe6RN86dRSJIkqTqDGe4r+R37bKHSYN/I37GHob53bRvs+XAEJMJQHqGJaeXZi46hkmBPECUsMwLNNHumgTPSmrAdnHPPedGEO0Z1syPTjORyHnU6Jz8fPAmDhLtRo0bFc7u5OBrncKdtbGSwx5w5c+LF384///z4Wfo614UvJAc9WJYwzvanYE+7cRE72o1TJGhjQm1v2DeZfk9bMeOit/2UYM/P2LFtBGZGx/npuaSovfgMLM8sAF7zyiuv9JiFwB8UfiaRafEpcPMrCHweAjxhO78v8RN7XBCP52n3FPrBl4/PwOfmoE125kI+2Pe3bXxvmUmR1sUBEkmSJNXeYIb7c2+ZWRi8yylUGux530Yx1PetrUfs1X6KzrGXJEmSamGwwv2MuasLg3c5NfnVRWHclPmFz/VXvG8jGOr7Z7BXWzHYS5IkqZ4GK9wPHzO1MHzXq3i/RjDUl8dgr7ZisJckSVK95cN9IzJUtVfHH2g14mr4tJuhvjwGe0mSJEmqsWy4L7quVz1Uc679QKpR59bTbob68hjsJUmSJKkOuOAxP2lc9MtO9bD95/3hhNFTCsN4rYr18z6NQLvRfunC0eqdwV6SJEmShohvV3SE40dOLgzl1RbrZf1qPgZ7SZIkSRpCCN+1HrlnfYb65mWwlyRJkqQhhunytTrnnvU0avq9KmOwlyRJkqQhiqvXV/pTeLyuEVe/V/UM9pIkSZI0xM2YuzqOvB83YmJhiE/F8yzH8modBntJkiRJahPd3YfD4pWdcSR+0vSFYfy0BfFf7vM4z6v1GOwlSZIkSWphBntJkiRJklqYwV6SJEmSpBZmsJckSZIkqYUZ7CVJkiRJamEGe0mSJEmSWpjBXpIkSZKkFmawlyRJkiSphRnsJUmSJElqYQZ7SZIkSZJamMFekiRJkqQWZrCXJEmSJKmFlRXsN27cGNatWxfWrFljsJckSZIkqYmQ08nr5Hbyewr227dvN9hLkiRJktTs+g32mzdvjkP5BntJkiRJkppPNtiT38nxHR0d/0zF5wFH7CVJkiRJak75Efs+g/3atWvDjh07Si+VJEmSJEmDjZxOXs8HewJ/DPZbtmwJmzZtCuvXr49X2DPYS5IkSZLUPMjp5HVyO/mdHJ+C/a5du8KwrVu3xhPvN2zYEBdkeH/VqlVhxYoVsZYvXx5r2bJllmVZlmVZlmVZlmXVsVIGT5mcfE5OJ6+T28nv5PjOzs5jgz0n4JP+Gd7nRfxG3sqVK3sE/HTbsizLsizLsizLsqzaVjZ3k8fJ5eRzcjp5Pf2GPTl+27ZtcSS/q6srDGP4nvn5Kdync+15cQr4HCHIFm9gWZZlWZZlWZZlWVb1lc/cKdCnUE9OT6E+nV/PT93t3Lkz7N69Owxj+D6N2jNXP43c80KG+lOxMsuyLMuyLMuyLMuy6lfZHE4uTyP15PU0Wp+m4XPhvBjsuTx+Cvdp5D4FfIo5/PlixZZlWZZlWZZlWZZlVV9FuTtl8hToyesp1JPjGa1nGv6ePXvCMObkM4TPkz/99FOPgJ/+TWE/VXrMsizLsizLsizLsqzqqihvZ3M5OZ28Tm4nv5PjuWgeo/V79+4Nwxi650ESfwr4zNdPIZ/iUvrpdrpvWZZlWZZlWZZlWVb1lc/b6Ta5nHyeAj25nfxOjme0nlC/b9++8H/KNB25Ff5I+AAAAABJRU5ErkJggg==" vertex="1" parent="1">
          <mxGeometry x="317" y="155.09" width="535" height="284.91" as="geometry" />
        </mxCell>
        <mxCell id="CWP3KJ67fJkBhS8T6Zk5-13" value="" style="endArrow=classic;html=1;rounded=0;exitX=0.417;exitY=0.087;exitDx=0;exitDy=0;exitPerimeter=0;" edge="1" parent="1" source="CWP3KJ67fJkBhS8T6Zk5-4">
          <mxGeometry width="50" height="50" relative="1" as="geometry">
            <mxPoint x="530" y="190" as="sourcePoint" />
            <mxPoint x="310" y="130" as="targetPoint" />
            <Array as="points">
              <mxPoint x="540" y="190" />
              <mxPoint x="260" y="200" />
              <mxPoint x="260" y="110.08" />
              <mxPoint x="310" y="110" />
            </Array>
          </mxGeometry>
        </mxCell>
        <mxCell id="CWP3KJ67fJkBhS8T6Zk5-17" value="Reset" style="edgeLabel;html=1;align=center;verticalAlign=middle;resizable=0;points=[];" vertex="1" connectable="0" parent="CWP3KJ67fJkBhS8T6Zk5-13">
          <mxGeometry x="0.4585" y="3" relative="1" as="geometry">
            <mxPoint as="offset" />
          </mxGeometry>
        </mxCell>
        <mxCell id="CWP3KJ67fJkBhS8T6Zk5-23" value="" style="endArrow=classic;html=1;rounded=0;entryX=0;entryY=0.032;entryDx=0;entryDy=0;entryPerimeter=0;" edge="1" parent="1" target="CWP3KJ67fJkBhS8T6Zk5-6">
          <mxGeometry width="50" height="50" relative="1" as="geometry">
            <mxPoint x="460" y="180" as="sourcePoint" />
            <mxPoint x="300" y="139.92000000000002" as="targetPoint" />
            <Array as="points">
              <mxPoint x="190" y="190" />
              <mxPoint x="190" y="140" />
            </Array>
          </mxGeometry>
        </mxCell>
        <mxCell id="CWP3KJ67fJkBhS8T6Zk5-24" value="Search" style="edgeLabel;html=1;align=center;verticalAlign=middle;resizable=0;points=[];" vertex="1" connectable="0" parent="CWP3KJ67fJkBhS8T6Zk5-23">
          <mxGeometry x="0.4222" y="-1" relative="1" as="geometry">
            <mxPoint as="offset" />
          </mxGeometry>
        </mxCell>
      </root>
    </mxGraphModel>
  </diagram>
</mxfile>
